<svg id="svg" version="1.1" xmlns="http://www.w3.org/2000/svg" xmlns:xlink="http://www.w3.org/1999/xlink" width="400" height="200.7843137254902" viewBox="0, 0, 400,200.7843137254902"><g id="svgg"><path id="path0" d="M180.567 12.836 L 180.622 25.672 181.476 26.460 C 182.058 26.997,182.329 27.413,182.329 27.769 C 182.329 28.504,182.631 28.607,183.650 28.218 C 184.522 27.885,184.729 27.580,184.345 27.196 C 183.708 26.559,184.018 25.610,184.940 25.376 C 186.287 25.033,186.631 25.322,186.706 26.860 C 186.778 28.330,187.751 29.001,187.751 27.580 C 187.751 26.000,189.502 25.569,190.317 26.948 C 190.595 27.420,190.783 27.510,191.481 27.510 C 192.045 27.510,192.560 27.677,193.078 28.029 C 193.499 28.315,194.438 28.731,195.165 28.954 C 195.891 29.177,196.606 29.457,196.752 29.576 C 196.948 29.736,197.067 29.717,197.202 29.505 C 197.334 29.297,197.219 29.078,196.785 28.715 C 195.271 27.449,195.536 25.635,197.562 23.382 C 199.153 21.613,199.252 21.396,198.870 20.489 C 198.660 19.990,198.512 19.869,198.244 19.975 C 196.753 20.565,196.076 20.108,196.592 18.861 C 196.888 18.148,196.909 18.146,197.837 18.777 L 198.578 19.280 198.768 18.526 C 198.872 18.111,199.015 17.435,199.085 17.025 C 199.341 15.522,200.077 15.316,200.679 16.577 C 201.490 18.278,201.523 18.306,202.293 17.939 C 203.230 17.492,203.539 17.675,203.704 18.772 C 203.887 19.992,203.638 20.281,202.408 20.281 C 200.905 20.281,200.378 21.773,201.583 22.616 C 203.402 23.891,204.159 26.853,203.073 28.452 C 202.492 29.308,202.463 29.270,203.751 29.338 C 204.685 29.387,204.858 29.328,205.446 28.753 C 206.015 28.196,206.239 28.112,207.162 28.112 C 208.079 28.112,208.269 28.043,208.560 27.599 C 209.629 25.968,212.048 25.990,212.048 27.631 C 212.048 28.215,212.450 28.506,212.981 28.304 C 213.620 28.062,213.686 27.835,213.415 26.819 C 213.001 25.272,214.197 24.599,215.555 25.615 C 215.910 25.881,215.923 25.975,215.688 26.559 C 215.204 27.764,215.205 27.850,215.697 27.982 C 216.750 28.264,217.470 28.139,217.470 27.675 C 217.470 27.411,217.849 26.884,218.424 26.349 L 219.378 25.461 219.432 12.730 L 219.487 0.000 199.999 0.000 L 180.511 0.000 180.567 12.836 M190.476 28.069 C 190.413 28.266,190.091 28.587,189.759 28.783 C 188.843 29.324,188.964 29.756,190.010 29.680 L 190.863 29.618 190.925 28.665 C 190.985 27.728,190.703 27.354,190.476 28.069 M209.044 28.605 C 208.425 29.351,209.308 29.946,210.566 29.630 C 211.253 29.458,211.157 29.182,210.249 28.719 C 209.300 28.235,209.347 28.240,209.044 28.605 M192.933 30.103 C 192.415 30.384,191.951 30.767,191.902 30.954 C 191.687 31.777,189.044 31.141,188.915 30.236 C 188.808 29.484,182.642 29.533,182.396 30.287 C 182.335 30.472,181.885 30.985,181.396 31.428 L 180.506 32.233 180.294 34.239 C 179.966 37.354,180.398 41.064,181.158 41.655 C 181.553 41.962,182.129 42.909,182.129 43.251 C 182.129 43.412,182.368 43.828,182.661 44.176 C 183.182 44.796,183.186 44.822,182.862 45.503 C 182.679 45.886,182.530 46.382,182.530 46.606 C 182.530 47.297,182.146 47.791,181.610 47.791 C 181.136 47.791,181.107 47.851,181.139 48.745 C 181.158 49.270,181.050 49.970,180.898 50.301 C 180.523 51.122,180.374 75.866,180.740 76.748 C 181.013 77.408,181.144 77.446,183.936 77.685 C 186.520 77.907,187.350 77.620,187.765 76.362 C 187.902 75.947,188.265 75.199,188.571 74.701 C 188.877 74.203,189.318 73.283,189.552 72.657 C 189.785 72.031,190.141 71.308,190.342 71.051 C 190.543 70.793,190.777 70.362,190.862 70.092 C 190.946 69.823,191.497 68.603,192.086 67.381 L 193.157 65.161 192.652 64.709 C 192.325 64.417,191.883 64.255,191.404 64.250 C 190.996 64.247,190.166 64.060,189.558 63.836 C 188.608 63.485,187.290 63.122,185.612 62.749 C 183.983 62.387,183.650 59.537,185.078 58.169 C 186.400 56.901,186.464 55.501,185.220 55.030 C 184.093 54.605,183.767 54.293,183.618 53.495 C 183.328 51.949,183.885 51.400,185.225 51.912 C 185.782 52.125,186.543 52.209,187.554 52.168 L 189.056 52.108 189.464 51.259 C 190.199 49.729,190.941 49.519,193.512 50.117 C 195.227 50.517,195.911 50.408,197.015 49.560 C 199.196 47.886,199.289 47.390,197.425 47.390 C 194.957 47.390,194.905 44.016,197.367 43.678 C 198.556 43.514,198.818 43.250,198.245 42.794 C 197.192 41.956,197.326 40.737,198.503 40.442 C 199.042 40.306,199.040 40.040,198.488 38.953 C 198.319 38.620,198.268 37.997,198.338 37.125 C 198.456 35.645,198.228 34.734,197.435 33.523 L 196.917 32.731 195.275 32.731 C 192.509 32.731,191.641 32.129,193.572 31.551 C 194.260 31.344,194.378 31.228,194.378 30.753 C 194.378 29.693,194.000 29.523,192.933 30.103 M211.596 29.936 C 211.403 30.048,211.245 30.255,211.245 30.394 C 211.245 31.231,208.665 31.608,208.165 30.845 C 207.939 30.499,207.621 30.343,207.026 30.287 C 205.617 30.152,205.346 31.180,206.722 31.438 C 207.759 31.633,208.020 32.224,207.196 32.511 C 206.296 32.825,204.416 32.780,203.742 32.428 C 202.081 31.562,201.791 32.176,201.699 36.747 C 201.674 37.981,201.545 38.928,201.334 39.429 L 201.007 40.203 201.608 40.764 C 202.279 41.391,202.361 41.793,201.897 42.178 C 200.822 43.070,201.152 43.760,202.587 43.622 C 203.928 43.493,204.418 43.966,204.418 45.391 C 204.418 46.898,203.777 47.488,202.322 47.317 C 200.225 47.070,200.473 48.853,202.598 49.301 C 202.977 49.381,203.444 49.638,203.634 49.874 C 204.002 50.328,203.863 50.318,208.062 50.211 C 209.809 50.166,210.337 50.386,210.735 51.325 C 211.037 52.039,211.952 52.352,213.427 52.246 C 214.694 52.156,217.457 49.398,216.281 49.398 C 214.999 49.398,214.065 47.520,215.078 46.978 C 215.974 46.499,216.857 47.273,216.865 48.544 C 216.868 49.077,216.986 49.094,217.934 48.698 C 218.869 48.307,218.998 48.056,218.482 47.635 C 218.219 47.421,217.944 46.802,217.760 46.007 L 217.462 44.726 218.307 43.607 C 219.534 41.981,219.716 41.291,219.831 37.827 C 220.058 30.983,219.162 29.727,214.056 29.730 C 212.897 29.730,211.790 29.823,211.596 29.936 M201.406 30.912 C 201.406 31.126,201.496 31.357,201.606 31.426 C 201.720 31.496,201.807 31.327,201.807 31.036 C 201.807 30.753,201.717 30.522,201.606 30.522 C 201.496 30.522,201.406 30.697,201.406 30.912 M191.369 42.135 C 191.832 42.780,192.082 42.968,192.332 42.863 C 193.674 42.302,193.731 42.294,194.229 42.621 C 194.986 43.117,195.175 44.847,194.545 45.517 C 194.108 45.982,194.016 45.996,192.276 45.871 C 190.655 45.754,190.408 45.782,189.960 46.137 C 188.800 47.054,187.471 47.446,186.664 47.108 C 185.869 46.776,185.892 46.758,185.646 47.892 C 185.359 49.210,184.071 50.028,182.787 49.706 C 182.315 49.587,182.308 49.561,182.613 49.095 C 182.788 48.828,182.932 48.348,182.932 48.029 C 182.932 46.967,183.719 46.094,184.742 46.020 C 185.743 45.949,186.145 45.705,186.145 45.171 C 186.145 44.599,187.101 43.976,187.979 43.976 C 188.610 43.976,188.755 44.048,188.755 44.361 C 188.755 44.886,188.961 45.382,189.178 45.382 C 189.464 45.382,189.385 44.249,189.082 43.998 C 188.570 43.572,188.354 41.450,188.728 40.508 L 188.949 39.951 189.846 40.608 C 190.339 40.969,191.024 41.656,191.369 42.135 M211.546 40.690 C 211.800 41.225,211.858 41.676,211.764 42.381 L 211.637 43.342 212.711 43.654 C 214.052 44.044,214.458 44.477,214.458 45.514 C 214.458 46.553,214.404 46.590,213.397 46.243 C 212.932 46.083,212.235 45.990,211.848 46.037 C 211.461 46.083,210.899 46.053,210.598 45.968 C 210.297 45.883,209.191 45.877,208.139 45.954 C 206.030 46.108,205.560 46.015,205.217 45.374 C 204.590 44.202,205.789 42.869,207.073 43.311 C 208.151 43.683,208.745 43.441,208.940 42.550 C 209.071 41.956,210.696 39.960,211.049 39.960 C 211.132 39.960,211.355 40.288,211.546 40.690 M217.922 50.205 C 217.673 50.306,217.470 50.521,217.470 50.682 C 217.470 50.843,217.330 51.116,217.158 51.287 C 216.987 51.459,216.756 52.157,216.646 52.840 C 216.396 54.392,215.918 55.081,214.871 55.395 C 213.737 55.734,213.681 56.867,214.746 57.932 C 215.699 58.885,215.950 60.082,215.398 61.044 C 214.612 62.415,214.317 62.614,212.879 62.741 C 209.746 63.017,207.028 64.062,207.028 64.990 C 207.028 65.255,207.909 67.284,208.627 68.675 C 208.827 69.061,209.055 69.603,209.135 69.880 C 209.215 70.156,209.539 70.792,209.855 71.294 C 210.171 71.795,210.561 72.576,210.720 73.028 C 210.880 73.480,211.236 74.207,211.512 74.644 C 211.787 75.081,212.122 75.804,212.256 76.250 C 212.637 77.522,213.638 77.925,215.863 77.705 C 216.802 77.611,217.819 77.530,218.122 77.523 C 219.545 77.490,219.479 78.148,219.467 64.106 C 219.454 49.605,219.451 49.582,217.922 50.205 M200.653 73.291 C 200.294 73.510,200.000 73.720,200.000 73.758 C 200.000 73.796,199.821 74.814,199.601 76.020 C 199.313 77.609,199.200 79.126,199.194 81.526 C 199.178 87.344,198.682 91.899,198.311 89.642 C 198.240 89.209,198.093 86.325,197.986 83.233 C 197.719 75.569,197.530 74.810,196.086 75.587 C 195.572 75.864,195.365 76.127,195.299 76.586 C 195.051 78.303,194.566 83.288,194.456 85.241 C 194.388 86.456,194.221 87.895,194.085 88.438 L 193.838 89.427 193.717 88.639 C 193.650 88.206,193.536 86.632,193.462 85.141 C 193.257 80.986,192.439 79.594,191.414 81.655 C 191.031 82.425,190.929 83.099,190.757 86.012 C 190.419 91.725,190.178 94.139,189.553 98.093 C 188.534 104.534,189.085 109.571,191.096 112.208 C 191.965 113.347,192.370 115.188,192.506 118.613 L 192.627 121.663 193.294 122.309 L 193.961 122.956 196.014 122.707 C 197.143 122.570,199.157 122.484,200.489 122.516 C 207.652 122.688,207.308 122.861,207.382 119.055 C 207.463 114.883,207.863 113.599,209.647 111.783 C 211.403 109.996,211.695 109.248,213.314 102.410 C 213.589 101.250,214.221 98.712,214.719 96.770 C 215.962 91.920,215.968 91.783,214.980 91.438 C 214.389 91.232,214.130 91.221,213.921 91.395 C 213.325 91.889,212.530 93.325,212.269 94.378 C 211.761 96.428,211.049 97.940,210.338 98.483 C 208.669 99.756,208.468 98.911,208.027 88.755 C 207.487 76.301,207.291 75.224,205.665 75.786 C 204.254 76.275,203.636 78.221,203.621 82.229 C 203.608 85.481,203.366 89.352,203.182 89.238 C 203.089 89.180,203.012 87.788,203.012 86.144 C 203.012 80.125,202.641 75.124,202.107 73.946 C 201.566 72.754,201.547 72.745,200.653 73.291 M239.960 80.689 C 239.518 80.837,239.157 81.028,239.157 81.115 C 239.157 81.202,238.818 81.714,238.404 82.253 C 237.989 82.792,237.480 83.549,237.271 83.936 C 237.062 84.322,236.688 84.864,236.440 85.141 C 236.192 85.417,235.853 85.914,235.686 86.245 C 235.519 86.576,235.147 87.101,234.859 87.410 C 234.572 87.720,234.189 88.258,234.010 88.606 C 233.543 89.508,232.182 91.473,231.809 91.782 C 231.635 91.926,231.237 92.552,230.924 93.173 C 230.610 93.793,230.205 94.425,230.023 94.576 C 229.841 94.727,229.552 95.128,229.382 95.467 C 229.211 95.807,228.863 96.310,228.610 96.586 C 228.356 96.862,227.956 97.462,227.721 97.918 C 227.486 98.374,227.117 98.907,226.900 99.103 C 226.396 99.559,226.345 101.223,226.823 101.619 C 226.997 101.764,227.366 102.329,227.642 102.874 C 227.919 103.420,228.363 104.084,228.630 104.351 C 228.896 104.618,229.264 105.126,229.446 105.480 C 229.628 105.835,229.951 106.350,230.164 106.627 C 230.377 106.903,230.817 107.535,231.142 108.032 C 231.468 108.529,232.138 109.478,232.632 110.141 C 233.126 110.803,233.642 111.571,233.778 111.847 C 234.001 112.299,234.733 113.344,236.539 115.783 C 236.874 116.235,237.149 116.671,237.149 116.752 C 237.149 117.275,239.332 119.894,239.960 120.124 C 240.528 120.332,255.907 120.372,320.331 120.330 L 400.000 120.278 400.000 100.400 L 400.000 80.523 320.382 80.472 C 254.466 80.430,240.625 80.468,239.960 80.689 M0.000 100.400 L 0.000 120.277 79.769 120.329 C 123.642 120.358,159.789 120.304,160.095 120.210 C 160.659 120.036,161.902 118.570,162.929 116.867 C 163.229 116.370,163.969 115.286,164.573 114.458 C 165.177 113.630,165.827 112.695,166.018 112.382 C 167.215 110.418,167.989 109.268,168.438 108.784 C 168.721 108.480,169.183 107.839,169.466 107.360 C 170.587 105.458,170.806 105.128,171.408 104.435 C 171.752 104.039,172.194 103.399,172.390 103.012 C 172.587 102.626,172.960 102.054,173.221 101.742 C 173.766 101.088,173.868 99.791,173.404 99.406 C 173.243 99.273,172.824 98.652,172.473 98.026 C 172.121 97.400,171.597 96.607,171.308 96.265 C 171.019 95.922,170.626 95.380,170.433 95.060 C 169.527 93.554,168.726 92.358,168.211 91.740 C 167.539 90.934,166.265 89.024,166.265 88.823 C 166.265 88.744,165.871 88.177,165.390 87.563 C 164.909 86.948,164.365 86.152,164.180 85.793 C 163.996 85.434,163.778 85.141,163.696 85.141 C 163.615 85.141,163.239 84.621,162.863 83.986 C 161.803 82.200,160.874 81.047,160.280 80.782 C 159.861 80.595,141.721 80.538,79.869 80.531 L 0.000 80.522 0.000 100.400 M182.534 123.367 C 180.304 123.705,180.528 119.321,180.525 162.701 L 180.522 200.803 200.000 200.803 L 219.478 200.803 219.478 162.481 C 219.478 126.238,219.459 124.141,219.127 123.843 C 218.756 123.510,216.284 123.092,214.694 123.093 C 213.522 123.094,212.553 123.650,212.366 124.429 C 212.290 124.743,211.917 125.511,211.536 126.135 C 211.155 126.759,210.845 127.346,210.846 127.440 C 210.847 127.534,210.403 128.514,209.858 129.618 C 209.314 130.723,208.543 132.349,208.145 133.233 C 207.747 134.116,207.279 135.110,207.105 135.442 C 206.932 135.773,206.672 136.270,206.528 136.546 C 206.384 136.822,205.862 137.907,205.368 138.956 C 204.874 140.005,204.007 141.829,203.440 143.010 C 202.873 144.190,202.410 145.234,202.410 145.329 C 202.410 146.019,200.182 148.730,199.806 148.498 C 199.556 148.344,197.791 145.713,197.791 145.495 C 197.791 145.346,196.740 143.136,193.774 137.048 C 192.805 135.060,191.720 132.756,191.363 131.928 C 191.005 131.099,190.501 130.057,190.242 129.612 C 189.984 129.167,189.645 128.442,189.490 128.003 C 189.335 127.563,188.943 126.786,188.620 126.276 C 188.296 125.766,187.915 124.996,187.773 124.565 C 187.296 123.119,186.051 122.834,182.534 123.367 " stroke="none" fill="#c70908" fill-rule="evenodd"></path><path id="path1" d="M0.000 39.759 L 0.000 79.518 79.083 79.518 C 122.579 79.518,158.215 79.469,158.276 79.408 C 158.532 79.152,157.888 77.676,157.419 77.442 C 156.381 76.925,156.246 75.601,157.183 75.140 C 157.374 75.046,160.602 75.035,164.357 75.115 C 171.365 75.265,171.407 75.269,173.795 76.182 C 174.794 76.563,178.316 76.623,178.675 76.265 C 179.459 75.481,178.897 45.984,178.098 45.984 C 177.556 45.984,177.108 45.147,177.105 44.127 C 177.102 42.952,177.009 42.737,176.356 42.393 C 176.108 42.262,175.722 41.797,175.499 41.359 C 175.275 40.921,175.013 40.562,174.917 40.562 C 174.593 40.562,174.469 39.875,174.755 39.664 C 175.607 39.035,175.575 37.423,174.693 36.541 C 173.823 35.670,173.972 34.817,175.306 33.032 C 175.846 32.310,175.886 32.158,175.702 31.526 C 175.298 30.143,175.837 29.214,177.470 28.475 C 178.852 27.850,178.796 28.449,178.873 13.504 L 178.943 -0.000 89.472 -0.000 L 0.000 0.000 0.000 39.759 M221.084 11.916 C 221.084 26.949,221.183 27.958,222.677 28.210 C 224.469 28.513,225.194 30.309,223.984 31.450 C 223.175 32.213,223.238 32.638,224.186 32.816 C 226.192 33.192,226.759 36.037,224.909 36.444 C 224.086 36.624,224.019 36.810,224.493 37.588 C 224.716 37.954,224.901 38.434,224.905 38.655 C 224.909 38.876,225.045 39.232,225.207 39.446 C 225.673 40.062,225.577 40.236,224.322 41.048 L 223.141 41.812 223.048 43.426 C 222.960 44.936,222.915 45.073,222.327 45.562 C 221.234 46.473,221.223 46.630,221.139 61.985 L 221.062 76.078 221.507 76.317 C 222.251 76.715,226.000 76.449,227.167 75.916 C 228.668 75.230,241.680 74.641,243.024 75.199 C 243.845 75.540,243.683 76.938,242.766 77.412 C 242.204 77.703,241.639 78.947,241.887 79.349 C 241.944 79.442,277.543 79.518,320.996 79.518 L 400.000 79.518 400.000 39.759 L 400.000 0.000 310.542 0.000 L 221.084 0.000 221.084 11.916 M197.390 58.835 C 196.703 58.980,196.709 58.984,197.641 59.010 C 198.165 59.024,198.594 58.946,198.594 58.835 C 198.594 58.615,198.436 58.615,197.390 58.835 M190.483 59.651 C 190.323 60.655,190.413 60.816,191.064 60.692 C 192.435 60.430,192.802 58.835,191.492 58.835 C 190.620 58.835,190.613 58.842,190.483 59.651 M209.377 59.237 C 208.905 60.566,208.947 60.643,210.149 60.643 C 211.316 60.643,211.482 60.369,210.452 60.143 C 210.057 60.056,209.802 59.836,209.674 59.475 C 209.539 59.092,209.453 59.023,209.377 59.237 M196.519 61.824 C 196.347 62.253,195.987 62.777,195.718 62.989 C 195.356 63.273,195.191 63.657,195.082 64.468 C 194.900 65.808,194.690 66.233,194.094 66.459 C 193.723 66.600,193.610 66.835,193.510 67.680 C 193.376 68.812,192.929 69.679,192.479 69.679 C 192.296 69.679,192.117 70.084,191.968 70.833 C 191.629 72.543,191.600 72.611,191.086 72.845 C 190.722 73.011,190.579 73.285,190.467 74.030 C 190.295 75.176,190.058 75.668,189.443 76.152 C 189.176 76.362,188.935 76.836,188.855 77.309 C 188.531 79.229,187.968 79.320,178.792 78.934 C 172.980 78.690,171.574 78.516,170.155 77.861 C 169.237 77.437,168.911 77.410,164.863 77.410 C 159.904 77.410,159.819 77.446,161.217 78.963 C 161.658 79.441,162.082 80.085,162.160 80.394 C 162.237 80.703,162.510 81.051,162.766 81.168 C 163.022 81.284,163.374 81.737,163.549 82.173 C 163.723 82.610,164.136 83.194,164.465 83.471 C 164.828 83.776,165.148 84.306,165.275 84.812 C 165.424 85.404,165.659 85.748,166.076 85.988 C 166.421 86.186,166.667 86.494,166.667 86.730 C 166.667 86.952,167.025 87.488,167.464 87.923 C 168.038 88.491,168.299 88.944,168.394 89.539 C 168.499 90.199,168.627 90.392,169.024 90.492 C 169.344 90.572,169.627 90.870,169.819 91.329 C 169.982 91.721,170.377 92.284,170.695 92.581 C 171.030 92.895,171.380 93.522,171.528 94.074 C 171.710 94.756,171.916 95.077,172.253 95.205 C 172.534 95.312,172.851 95.707,173.037 96.182 C 173.210 96.620,173.527 97.035,173.742 97.103 C 175.234 97.577,175.322 102.347,173.862 103.640 C 173.534 103.931,173.114 104.473,172.928 104.845 C 172.742 105.217,172.400 105.606,172.168 105.708 C 171.888 105.831,171.660 106.222,171.496 106.864 C 171.333 107.500,171.012 108.057,170.563 108.479 C 170.187 108.834,169.880 109.271,169.880 109.451 C 169.880 109.808,169.378 110.309,168.825 110.505 C 168.632 110.574,168.474 110.810,168.474 111.031 C 168.474 111.690,167.849 112.797,167.347 113.026 C 167.085 113.145,166.824 113.486,166.756 113.798 C 166.542 114.772,166.487 114.861,165.979 115.054 C 165.633 115.186,165.416 115.487,165.266 116.045 C 165.148 116.486,164.789 117.108,164.469 117.428 C 164.149 117.748,163.749 118.340,163.580 118.743 C 163.412 119.147,163.053 119.578,162.782 119.701 C 162.475 119.841,162.244 120.156,162.168 120.537 C 162.099 120.879,161.692 121.486,161.244 121.912 C 159.653 123.425,160.095 123.695,164.160 123.695 C 167.618 123.695,169.157 123.501,170.529 122.895 C 171.850 122.310,174.088 122.117,181.275 121.965 C 188.800 121.806,188.562 121.758,188.856 123.497 C 188.953 124.072,189.212 124.553,189.656 124.984 C 190.159 125.473,190.345 125.860,190.453 126.640 C 190.562 127.436,190.717 127.750,191.165 128.081 C 191.626 128.421,191.763 128.714,191.872 129.582 C 192.026 130.819,192.104 130.977,192.712 131.298 C 193.169 131.538,193.571 132.604,193.573 133.579 C 193.574 133.981,193.731 134.207,194.167 134.433 C 194.778 134.749,195.177 135.676,195.180 136.784 C 195.180 137.149,195.370 137.457,195.768 137.740 C 196.091 137.970,196.401 138.405,196.457 138.708 C 196.513 139.010,196.614 139.591,196.680 139.999 C 196.761 140.495,196.933 140.782,197.198 140.866 C 197.720 141.032,198.193 141.974,198.193 142.847 C 198.193 143.516,198.604 144.177,199.021 144.177 C 199.301 144.177,199.799 145.458,199.799 146.178 C 199.799 147.132,200.161 146.891,200.318 145.833 C 200.422 145.129,200.628 144.719,201.104 144.268 C 201.586 143.811,201.787 143.406,201.897 142.672 C 202.009 141.924,202.204 141.540,202.707 141.075 C 203.224 140.596,203.398 140.240,203.505 139.448 C 203.662 138.278,203.755 138.097,204.359 137.779 C 204.647 137.627,204.845 137.283,204.925 136.795 C 205.211 135.042,205.273 134.891,205.839 134.567 C 206.293 134.307,206.444 134.046,206.548 133.333 C 206.743 132.008,206.961 131.548,207.515 131.296 C 207.926 131.109,208.033 130.878,208.147 129.943 C 208.309 128.600,208.500 128.182,209.028 128.015 C 209.322 127.921,209.483 127.577,209.665 126.653 C 209.842 125.754,210.060 125.277,210.463 124.907 C 210.793 124.603,211.114 124.007,211.258 123.431 C 211.673 121.774,211.517 121.804,218.901 121.964 C 226.231 122.122,228.008 122.295,229.888 123.030 C 231.130 123.516,231.510 123.560,235.248 123.646 C 240.296 123.763,240.621 123.566,238.647 121.592 C 238.265 121.210,237.952 120.724,237.952 120.512 C 237.952 120.301,237.646 119.895,237.273 119.610 C 236.899 119.325,236.535 118.856,236.462 118.568 C 236.390 118.280,236.022 117.736,235.645 117.358 C 235.239 116.953,234.904 116.378,234.824 115.951 C 234.749 115.554,234.542 115.177,234.362 115.114 C 233.771 114.906,233.333 114.403,233.333 113.933 C 233.333 113.678,233.191 113.353,233.018 113.211 C 232.127 112.480,231.917 112.184,231.711 111.366 C 231.544 110.704,231.369 110.446,231.027 110.360 C 230.728 110.285,230.454 109.961,230.242 109.433 C 230.064 108.986,229.779 108.568,229.609 108.503 C 229.210 108.349,228.514 106.985,228.514 106.355 C 228.514 105.998,228.375 105.832,227.999 105.738 C 227.650 105.650,227.366 105.346,227.119 104.792 C 226.918 104.343,226.545 103.872,226.291 103.745 C 224.800 103.000,224.777 98.344,226.260 97.183 C 226.561 96.947,226.943 96.469,227.109 96.120 C 227.275 95.772,227.659 95.368,227.963 95.222 C 228.282 95.069,228.514 94.795,228.514 94.571 C 228.514 93.907,229.138 92.591,229.508 92.473 C 229.703 92.411,230.003 92.002,230.175 91.563 C 230.375 91.054,230.676 90.694,231.007 90.569 C 231.293 90.460,231.526 90.273,231.526 90.153 C 231.526 89.619,232.409 87.954,232.748 87.846 C 232.971 87.775,233.210 87.406,233.336 86.937 C 233.482 86.394,233.727 86.055,234.117 85.853 C 234.476 85.668,234.728 85.344,234.803 84.972 C 234.867 84.649,235.274 83.975,235.707 83.475 C 236.140 82.976,236.552 82.334,236.623 82.050 C 236.696 81.760,237.016 81.397,237.352 81.223 C 237.770 81.007,237.952 80.764,237.952 80.421 C 237.952 80.111,238.220 79.686,238.678 79.272 C 240.557 77.571,240.140 77.308,235.568 77.314 C 231.777 77.319,231.293 77.379,229.317 78.087 C 227.874 78.605,224.811 78.868,218.236 79.038 C 211.763 79.205,211.786 79.210,211.306 77.485 C 211.097 76.733,210.817 76.202,210.528 76.013 C 210.069 75.712,209.774 75.000,209.546 73.645 C 209.469 73.184,209.308 72.892,209.132 72.892 C 208.675 72.892,208.277 72.081,208.128 70.850 C 208.012 69.892,207.918 69.694,207.534 69.597 C 207.020 69.468,206.713 68.808,206.531 67.439 C 206.431 66.686,206.318 66.482,205.949 66.390 C 205.365 66.243,205.020 65.486,205.020 64.353 C 205.020 63.615,204.930 63.404,204.494 63.119 C 204.205 62.929,203.802 62.385,203.598 61.909 L 203.227 61.044 200.029 61.044 L 196.831 61.044 196.519 61.824 M202.752 72.204 C 202.950 72.488,203.406 73.028,203.765 73.402 C 204.124 73.777,204.418 74.222,204.418 74.391 C 204.418 74.826,205.159 74.777,205.763 74.301 L 206.268 73.904 207.121 74.603 C 207.589 74.987,208.081 75.301,208.214 75.301 C 208.981 75.301,209.102 76.525,209.222 85.475 C 209.348 94.926,209.292 94.499,210.371 94.244 C 211.108 94.070,211.132 94.035,211.351 92.822 C 211.795 90.368,214.822 88.305,216.345 89.418 C 217.380 90.175,217.237 96.217,216.163 97.141 C 215.623 97.605,215.595 97.722,215.441 100.167 C 215.352 101.566,215.276 102.730,215.270 102.754 C 215.265 102.778,214.991 103.105,214.661 103.480 C 214.113 104.105,214.046 104.346,213.878 106.280 C 213.703 108.290,213.206 109.639,212.639 109.639 C 212.564 109.639,212.453 110.007,212.393 110.457 C 212.278 111.314,211.778 112.048,211.309 112.048 C 211.158 112.048,210.956 112.255,210.859 112.508 C 210.648 113.063,210.279 113.385,209.739 113.484 C 209.266 113.571,209.090 115.145,209.056 119.584 C 209.036 122.256,208.818 123.092,208.145 123.092 C 207.998 123.092,207.831 123.274,207.772 123.497 C 207.545 124.367,206.748 124.462,199.697 124.464 C 190.560 124.466,191.119 124.867,190.959 118.188 C 190.873 114.635,190.798 113.767,190.568 113.690 C 189.969 113.490,189.398 112.680,189.257 111.829 C 189.151 111.191,188.934 110.796,188.480 110.414 L 187.851 109.884 187.784 103.587 C 187.709 96.581,187.855 95.060,188.715 93.827 L 189.242 93.072 189.350 86.902 L 189.458 80.731 190.007 80.182 C 190.492 79.698,190.751 79.621,192.216 79.526 L 193.876 79.418 193.988 77.209 C 194.105 74.889,194.448 73.813,195.128 73.626 C 196.849 73.154,197.697 73.394,198.222 74.504 L 198.552 75.201 198.700 73.819 C 198.900 71.946,199.180 71.687,200.995 71.687 C 202.268 71.687,202.423 71.732,202.752 72.204 M0.000 161.043 L 0.000 200.803 89.458 200.803 L 178.916 200.803 178.916 162.758 C 178.916 125.349,178.909 124.709,178.527 124.505 C 177.709 124.067,174.260 124.385,172.917 125.022 C 171.650 125.623,159.123 126.271,157.353 125.827 C 156.222 125.543,156.265 123.996,157.420 123.399 C 157.929 123.136,158.573 121.759,158.310 121.496 C 158.249 121.435,122.605 121.363,79.100 121.335 L 0.000 121.284 0.000 161.043 M242.002 121.461 C 241.701 121.651,242.068 123.293,242.410 123.293 C 243.315 123.293,243.871 125.071,243.128 125.591 C 242.027 126.362,229.209 125.870,227.059 124.974 C 225.621 124.375,222.631 124.107,221.699 124.493 L 221.084 124.748 221.084 162.775 L 221.084 200.803 310.542 200.803 L 400.000 200.803 400.000 161.044 L 400.000 121.285 321.135 121.288 C 277.759 121.290,242.149 121.368,242.002 121.461 " stroke="none" fill="#fbfbfb" fill-rule="evenodd"></path><path id="path2" d="M219.572 12.249 C 219.572 19.041,219.598 21.820,219.628 18.424 C 219.659 15.028,219.659 9.470,219.628 6.074 C 219.598 2.678,219.572 5.457,219.572 12.249 M199.529 15.961 C 199.355 16.135,199.155 16.614,199.085 17.025 C 199.015 17.435,198.872 18.111,198.768 18.526 L 198.578 19.280 197.837 18.777 C 196.909 18.146,196.888 18.148,196.592 18.861 C 196.076 20.108,196.753 20.565,198.244 19.975 C 198.512 19.869,198.660 19.990,198.870 20.489 C 199.252 21.396,199.153 21.613,197.562 23.382 C 195.563 25.606,195.271 27.468,196.736 28.666 C 197.040 28.915,197.260 29.264,197.225 29.441 C 197.190 29.618,197.351 29.966,197.583 30.213 C 198.098 30.761,197.922 30.945,196.528 31.323 C 195.819 31.514,195.440 31.526,195.090 31.366 C 194.601 31.144,193.047 31.572,192.554 32.065 C 192.198 32.420,193.468 32.731,195.275 32.731 L 196.917 32.731 197.435 33.523 C 198.235 34.744,198.460 35.650,198.334 37.143 C 198.227 38.420,198.394 39.241,198.670 38.795 C 198.845 38.512,198.864 31.751,198.691 31.073 C 198.499 30.317,199.680 29.745,200.561 30.166 L 201.104 30.426 201.205 34.574 C 201.260 36.856,201.373 38.790,201.456 38.873 C 201.628 39.044,201.625 39.070,201.688 36.647 C 201.806 32.155,202.092 31.568,203.742 32.428 C 204.926 33.046,208.028 32.670,207.645 31.955 C 207.408 31.512,205.776 31.078,205.177 31.299 C 202.321 32.353,201.359 30.985,203.124 28.379 C 204.159 26.850,203.360 23.861,201.583 22.616 C 200.378 21.773,200.905 20.281,202.408 20.281 C 203.638 20.281,203.887 19.992,203.704 18.772 C 203.539 17.675,203.230 17.492,202.293 17.939 C 201.523 18.306,201.490 18.278,200.679 16.577 C 200.243 15.663,199.973 15.518,199.529 15.961 M183.538 28.243 C 183.018 28.473,182.751 28.497,182.493 28.337 C 182.208 28.159,182.084 28.226,181.793 28.719 C 181.599 29.048,181.331 29.317,181.199 29.317 C 180.976 29.317,180.774 29.538,179.551 31.123 C 179.257 31.505,178.975 32.309,178.795 33.285 C 178.637 34.140,178.455 35.115,178.391 35.452 C 178.326 35.788,178.411 36.525,178.578 37.089 C 178.757 37.692,178.837 38.458,178.771 38.949 C 178.632 39.983,179.021 41.263,179.726 42.090 C 180.389 42.866,180.624 44.436,180.242 45.533 C 179.956 46.352,179.972 46.455,180.591 47.791 C 180.941 48.547,181.021 48.621,181.081 48.243 C 181.132 47.920,181.290 47.791,181.633 47.791 C 182.146 47.791,182.530 47.283,182.530 46.606 C 182.530 46.382,182.679 45.886,182.862 45.503 C 183.186 44.822,183.182 44.796,182.661 44.176 C 182.368 43.828,182.129 43.412,182.129 43.251 C 182.129 42.909,181.553 41.962,181.158 41.655 C 180.398 41.064,179.966 37.354,180.294 34.239 L 180.506 32.233 181.396 31.428 C 181.885 30.985,182.335 30.472,182.396 30.287 C 182.642 29.533,188.808 29.484,188.915 30.236 C 189.050 31.180,191.688 31.771,191.914 30.908 C 191.969 30.696,192.101 30.522,192.208 30.522 C 192.314 30.522,192.145 30.307,191.833 30.045 C 191.347 29.636,191.114 29.582,190.211 29.669 C 189.119 29.774,188.832 29.522,189.398 28.956 C 189.585 28.768,189.550 28.715,189.241 28.715 C 189.023 28.715,188.657 28.584,188.429 28.424 C 188.200 28.264,187.841 28.131,187.631 28.130 C 187.421 28.128,186.571 28.083,185.743 28.029 C 184.646 27.959,184.047 28.017,183.538 28.243 M213.060 28.242 C 212.716 28.417,212.490 28.430,212.316 28.285 C 212.139 28.139,211.932 28.171,211.611 28.396 C 211.360 28.571,210.978 28.715,210.760 28.715 C 210.370 28.715,210.370 28.718,210.755 29.012 C 211.321 29.444,210.800 29.745,209.610 29.674 C 208.338 29.598,207.692 30.122,208.166 30.845 C 208.666 31.610,211.245 31.230,211.245 30.392 C 211.245 29.903,212.030 29.719,214.093 29.724 C 219.163 29.735,220.058 30.998,219.831 37.827 C 219.716 41.291,219.534 41.981,218.307 43.607 L 217.462 44.726 217.752 45.969 C 218.077 47.363,218.348 47.791,218.903 47.791 C 219.464 47.791,220.123 46.624,219.979 45.884 C 219.536 43.598,219.595 42.825,220.239 42.492 C 220.869 42.166,220.914 42.043,221.371 39.379 C 221.435 39.004,221.635 38.590,221.816 38.458 C 222.439 38.002,222.437 35.427,221.811 34.105 C 221.522 33.494,221.285 32.766,221.285 32.489 C 221.285 31.688,219.597 29.317,219.027 29.317 C 218.820 29.317,218.703 29.234,218.766 29.132 C 219.284 28.292,214.446 27.538,213.060 28.242 M201.807 31.036 C 201.807 31.327,201.720 31.496,201.606 31.426 C 201.496 31.357,201.406 31.126,201.406 30.912 C 201.406 30.697,201.496 30.522,201.606 30.522 C 201.717 30.522,201.807 30.753,201.807 31.036 M220.869 36.781 C 220.889 37.509,220.696 37.952,220.360 37.952 C 220.013 37.952,219.991 37.063,220.315 36.135 C 220.576 35.386,220.841 35.695,220.869 36.781 M188.728 40.508 C 188.354 41.450,188.570 43.572,189.082 43.998 C 189.385 44.249,189.464 45.382,189.178 45.382 C 188.961 45.382,188.755 44.886,188.755 44.361 C 188.755 44.048,188.610 43.976,187.979 43.976 C 187.101 43.976,186.145 44.599,186.145 45.171 C 186.145 45.705,185.743 45.949,184.742 46.020 C 183.719 46.094,182.932 46.967,182.932 48.029 C 182.932 48.348,182.788 48.828,182.613 49.095 C 182.308 49.561,182.315 49.587,182.787 49.706 C 184.071 50.028,185.359 49.210,185.646 47.892 C 185.892 46.758,185.869 46.776,186.664 47.108 C 187.471 47.446,188.800 47.054,189.960 46.137 C 190.408 45.782,190.655 45.754,192.276 45.871 C 194.016 45.996,194.108 45.982,194.545 45.517 C 195.175 44.847,194.986 43.117,194.229 42.621 C 193.731 42.294,193.674 42.302,192.332 42.863 C 192.082 42.968,191.832 42.780,191.369 42.135 C 191.024 41.656,190.339 40.969,189.846 40.608 L 188.949 39.951 188.728 40.508 M209.991 40.930 C 209.491 41.464,209.019 42.193,208.940 42.550 C 208.745 43.441,208.151 43.683,207.073 43.311 C 205.789 42.869,204.590 44.202,205.217 45.374 C 205.560 46.015,206.030 46.108,208.139 45.954 C 209.191 45.877,210.297 45.883,210.598 45.968 C 210.899 46.053,211.461 46.083,211.848 46.037 C 212.235 45.990,212.932 46.083,213.397 46.243 C 214.404 46.590,214.458 46.553,214.458 45.514 C 214.458 44.477,214.052 44.044,212.711 43.654 L 211.637 43.342 211.764 42.381 C 211.888 41.448,211.448 39.960,211.049 39.960 C 210.966 39.960,210.490 40.397,209.991 40.930 M198.145 40.578 C 197.261 41.090,197.305 42.045,198.245 42.794 C 198.818 43.250,198.556 43.514,197.367 43.678 C 194.905 44.016,194.957 47.390,197.425 47.390 C 199.289 47.390,199.196 47.886,197.015 49.560 C 195.911 50.408,195.227 50.517,193.512 50.117 C 190.941 49.519,190.199 49.729,189.464 51.259 L 189.056 52.108 187.554 52.168 C 186.543 52.209,185.782 52.125,185.225 51.912 C 183.885 51.400,183.328 51.949,183.618 53.495 C 183.767 54.293,184.093 54.605,185.220 55.030 C 186.286 55.433,186.389 56.842,185.426 57.847 L 184.878 58.420 185.361 58.602 C 186.127 58.891,192.420 57.770,193.073 57.228 C 193.638 56.759,200.986 56.538,203.213 56.923 C 203.379 56.952,203.876 57.037,204.317 57.112 C 204.759 57.187,205.527 57.379,206.024 57.539 C 206.521 57.698,207.696 57.916,208.635 58.023 C 209.573 58.130,211.155 58.363,212.149 58.541 C 215.891 59.213,216.001 59.187,214.759 57.945 C 213.681 56.867,213.730 55.736,214.871 55.395 C 215.918 55.081,216.396 54.392,216.646 52.840 C 216.756 52.157,216.987 51.459,217.158 51.287 C 217.547 50.898,217.555 50.522,217.181 50.211 C 217.020 50.077,216.898 49.640,216.903 49.216 C 216.929 47.381,216.138 46.411,215.078 46.978 C 214.065 47.520,214.999 49.398,216.281 49.398 C 217.457 49.398,214.694 52.156,213.427 52.246 C 211.952 52.352,211.037 52.039,210.735 51.325 C 210.337 50.386,209.809 50.166,208.062 50.211 C 203.863 50.318,204.002 50.328,203.634 49.874 C 203.444 49.638,202.977 49.381,202.598 49.301 C 200.473 48.853,200.225 47.070,202.322 47.317 C 203.777 47.488,204.418 46.898,204.418 45.391 C 204.418 43.966,203.928 43.493,202.587 43.622 C 201.152 43.760,200.822 43.070,201.897 42.178 C 203.156 41.133,199.717 39.666,198.145 40.578 M200.830 52.442 C 202.371 52.903,202.651 54.421,201.266 54.806 C 198.585 55.550,197.210 54.645,198.122 52.734 C 198.488 51.966,199.042 51.906,200.830 52.442 M219.572 64.357 C 219.572 70.873,219.597 73.510,219.628 70.217 C 219.659 66.923,219.659 61.592,219.628 58.369 C 219.597 55.147,219.572 57.841,219.572 64.357 M209.157 53.546 C 209.988 54.090,209.755 55.085,208.716 55.428 C 207.998 55.665,205.844 54.470,206.137 53.996 C 206.654 53.160,208.213 52.928,209.157 53.546 M192.992 53.791 L 193.458 54.169 192.949 54.845 C 192.669 55.218,192.378 55.690,192.302 55.895 C 192.175 56.240,191.089 56.249,190.541 55.910 C 190.308 55.766,190.187 54.141,190.382 53.776 C 190.657 53.263,192.352 53.273,192.992 53.791 M39.524 120.432 C 61.318 120.460,96.920 120.460,118.641 120.432 C 140.361 120.404,122.530 120.381,79.016 120.381 C 35.502 120.381,17.731 120.404,39.524 120.432 M281.492 120.432 C 303.286 120.460,338.888 120.460,360.609 120.432 C 382.329 120.404,364.498 120.381,320.984 120.381 C 277.470 120.381,259.699 120.404,281.492 120.432 M219.576 162.751 C 219.576 183.735,219.600 192.290,219.629 181.761 C 219.657 171.233,219.657 154.064,219.628 143.609 C 219.600 133.153,219.576 141.767,219.576 162.751 " stroke="none" fill="#d3a913" fill-rule="evenodd"></path><path id="path3" d="M180.120 12.266 C 180.120 23.941,180.101 24.608,179.712 26.131 C 179.395 27.373,179.348 27.890,179.501 28.445 C 179.674 29.071,179.651 29.172,179.316 29.259 C 179.073 29.323,178.814 29.721,178.603 30.357 C 178.421 30.905,178.148 31.401,177.997 31.459 C 177.480 31.658,176.659 33.773,176.897 34.294 C 177.192 34.942,177.148 36.150,176.807 36.747 C 176.176 37.851,176.842 40.184,177.998 40.917 C 178.827 41.442,178.856 41.613,178.318 42.799 C 177.741 44.071,177.793 44.791,178.514 45.482 C 178.845 45.799,179.116 46.160,179.116 46.284 C 179.116 46.407,179.342 46.815,179.618 47.189 L 180.120 47.869 180.120 62.000 C 180.120 70.833,180.047 76.269,179.924 76.498 C 179.633 77.042,178.653 77.306,176.827 77.333 C 173.032 77.388,173.307 77.882,177.284 78.154 C 187.017 78.818,187.892 78.711,188.453 76.780 C 188.630 76.171,188.943 75.590,189.169 75.450 C 189.409 75.300,189.727 74.673,189.963 73.883 C 190.187 73.132,190.568 72.366,190.849 72.102 C 191.144 71.825,191.429 71.233,191.559 70.630 C 191.684 70.047,192.014 69.350,192.343 68.975 C 192.686 68.585,192.968 67.977,193.052 67.447 C 193.140 66.896,193.405 66.341,193.760 65.964 C 195.299 64.328,194.525 62.045,192.743 62.966 C 192.200 63.247,192.051 63.249,191.397 62.988 C 190.993 62.826,189.623 62.584,188.353 62.451 C 185.642 62.165,185.816 62.240,185.519 61.247 C 185.241 60.320,185.571 59.237,186.131 59.237 C 186.317 59.237,186.645 59.102,186.859 58.937 C 187.223 58.657,187.195 58.640,186.446 58.676 C 186.004 58.698,185.449 58.649,185.212 58.568 C 184.653 58.376,184.225 58.802,184.053 59.719 C 183.889 60.595,184.918 62.595,185.612 62.749 C 187.290 63.122,188.608 63.485,189.558 63.836 C 190.166 64.060,190.996 64.247,191.404 64.250 C 191.883 64.255,192.325 64.417,192.652 64.709 L 193.157 65.161 192.086 67.381 C 191.497 68.603,190.946 69.823,190.862 70.092 C 190.777 70.362,190.543 70.793,190.342 71.051 C 190.141 71.308,189.785 72.031,189.552 72.657 C 189.318 73.283,188.877 74.203,188.571 74.701 C 188.265 75.199,187.902 75.947,187.765 76.362 C 187.350 77.620,186.520 77.907,183.936 77.685 C 181.144 77.446,181.013 77.408,180.740 76.748 C 180.339 75.780,180.526 51.115,180.942 50.201 C 181.296 49.419,181.283 49.318,180.627 47.892 C 179.966 46.455,179.952 46.366,180.242 45.533 C 180.624 44.436,180.389 42.866,179.726 42.090 C 179.021 41.263,178.632 39.983,178.771 38.949 C 178.837 38.458,178.757 37.692,178.578 37.089 C 178.411 36.525,178.326 35.788,178.391 35.452 C 178.455 35.115,178.637 34.140,178.795 33.285 C 179.110 31.582,179.369 31.146,181.175 29.285 C 182.565 27.853,182.603 27.500,181.476 26.460 L 180.622 25.672 180.567 12.836 C 180.531 4.701,180.439 0.000,180.316 0.000 C 180.191 0.000,180.120 4.462,180.120 12.266 M219.679 12.119 C 219.679 25.553,219.719 25.125,218.340 26.420 C 217.231 27.461,217.247 27.700,218.489 28.689 C 220.009 29.899,221.285 31.660,221.285 32.548 C 221.285 32.793,221.522 33.494,221.811 34.105 C 222.437 35.427,222.439 38.002,221.816 38.458 C 221.635 38.590,221.435 39.004,221.371 39.379 C 220.918 42.020,220.865 42.168,220.266 42.478 C 219.597 42.824,219.531 43.306,219.889 45.240 C 220.185 46.844,219.491 47.980,217.721 48.786 C 216.358 49.406,216.676 50.657,218.073 50.170 C 219.570 49.649,219.679 50.623,219.679 64.531 C 219.679 76.838,219.652 77.167,218.638 77.403 C 215.192 78.207,212.708 77.758,212.256 76.250 C 212.122 75.804,211.787 75.081,211.512 74.644 C 211.236 74.207,210.880 73.480,210.720 73.028 C 210.561 72.576,210.171 71.795,209.855 71.294 C 209.539 70.792,209.215 70.156,209.135 69.880 C 209.055 69.603,208.827 69.061,208.627 68.675 C 207.909 67.284,207.028 65.255,207.028 64.990 C 207.028 64.062,209.746 63.017,212.879 62.741 C 214.318 62.614,214.616 62.413,215.395 61.044 C 216.020 59.948,215.780 59.176,214.757 58.994 C 210.947 58.319,210.890 58.325,211.895 59.278 C 212.522 59.873,212.641 59.915,213.073 59.692 C 213.778 59.328,214.195 59.382,214.544 59.880 C 214.964 60.480,214.573 61.070,213.568 61.353 C 213.161 61.467,212.760 61.671,212.677 61.805 C 212.593 61.940,211.807 62.140,210.929 62.250 C 210.051 62.360,209.063 62.526,208.733 62.620 C 208.403 62.713,207.568 62.747,206.878 62.696 L 205.622 62.602 205.622 63.857 C 205.622 64.998,205.683 65.179,206.294 65.856 C 206.736 66.345,207.013 66.896,207.105 67.468 C 207.188 67.987,207.473 68.599,207.813 68.985 C 208.177 69.400,208.432 69.972,208.523 70.575 C 208.621 71.230,208.866 71.742,209.327 72.255 C 209.751 72.725,210.043 73.301,210.134 73.848 C 210.221 74.371,210.537 75.015,210.944 75.502 C 211.325 75.958,211.667 76.638,211.744 77.088 C 211.985 78.517,212.128 78.559,216.299 78.448 C 220.538 78.335,225.680 78.001,225.853 77.829 C 226.128 77.553,225.572 77.440,223.296 77.309 C 219.671 77.101,220.080 79.044,220.080 62.044 C 220.080 47.949,220.089 47.634,220.482 47.134 C 220.703 46.853,220.884 46.538,220.884 46.434 C 220.884 46.330,221.149 45.879,221.473 45.431 C 222.350 44.221,222.445 43.381,221.811 42.448 C 221.286 41.676,221.456 40.974,222.170 40.959 C 223.331 40.936,224.127 38.830,223.356 37.819 C 222.788 37.075,222.802 35.823,223.394 34.405 C 223.647 33.800,223.639 33.719,223.309 33.542 C 223.108 33.435,222.783 33.005,222.587 32.587 C 222.391 32.169,222.062 31.612,221.858 31.348 C 221.358 30.705,221.379 29.817,221.902 29.450 C 222.457 29.061,222.077 28.835,221.158 29.008 C 220.503 29.131,220.470 29.113,220.669 28.740 C 220.971 28.176,220.928 27.730,220.482 26.807 C 220.111 26.039,220.094 25.433,220.087 13.002 C 220.083 4.472,220.011 0.000,219.880 0.000 C 219.748 0.000,219.679 4.173,219.679 12.119 M184.940 25.376 C 183.553 25.728,183.866 27.788,185.333 27.962 C 186.634 28.116,186.773 27.994,186.706 26.755 C 186.629 25.331,186.258 25.041,184.940 25.376 M213.546 25.511 C 213.169 25.927,213.360 27.490,213.847 27.982 C 214.441 28.582,215.863 27.166,215.863 25.975 C 215.863 25.296,214.066 24.936,213.546 25.511 M188.271 26.521 C 187.384 27.576,187.678 28.291,189.176 28.720 C 189.724 28.877,190.562 28.384,190.562 27.904 C 190.562 27.798,190.653 27.711,190.763 27.711 C 190.873 27.711,190.964 28.077,190.964 28.524 C 190.964 29.974,192.115 30.659,193.319 29.924 C 194.032 29.490,194.378 29.738,194.378 30.685 C 194.378 31.575,197.089 31.669,197.807 30.804 C 198.124 30.422,196.741 29.426,195.320 29.012 C 194.636 28.812,193.677 28.393,193.188 28.080 C 192.563 27.679,192.043 27.510,191.431 27.510 C 190.953 27.510,190.562 27.427,190.562 27.325 C 190.562 27.039,189.361 25.904,189.059 25.904 C 188.911 25.904,188.557 26.182,188.271 26.521 M209.618 26.705 C 209.221 26.915,208.744 27.318,208.560 27.600 C 208.270 28.042,208.079 28.112,207.162 28.112 C 206.242 28.112,206.014 28.197,205.455 28.743 C 204.894 29.292,204.661 29.377,203.675 29.396 C 202.187 29.424,201.607 30.340,202.507 31.240 C 203.222 31.955,205.530 31.573,205.926 30.675 C 206.095 30.292,206.253 30.235,206.997 30.290 C 207.945 30.360,208.835 29.787,208.835 29.106 C 208.835 28.561,209.341 28.247,209.813 28.500 C 211.226 29.256,212.609 27.998,211.736 26.752 C 211.350 26.201,210.604 26.184,209.618 26.705 M189.333 27.821 C 188.886 28.269,188.356 27.690,188.763 27.199 C 188.997 26.918,189.052 26.918,189.333 27.199 C 189.614 27.480,189.614 27.540,189.333 27.821 M219.843 27.165 C 220.222 27.621,219.424 28.233,218.775 27.984 C 218.468 27.867,218.365 27.284,218.608 27.041 C 218.834 26.815,219.618 26.893,219.843 27.165 M181.426 27.513 C 181.426 27.710,181.260 27.793,180.936 27.757 C 180.298 27.686,180.162 27.533,180.528 27.299 C 180.936 27.036,181.426 27.153,181.426 27.513 M192.583 28.831 C 192.801 29.093,192.796 29.178,192.557 29.329 C 192.016 29.672,191.666 29.412,191.888 28.833 C 192.043 28.430,192.249 28.429,192.583 28.831 M199.225 30.230 C 198.626 30.488,198.566 30.583,198.691 31.074 C 198.857 31.726,198.848 38.507,198.681 38.778 C 198.411 39.214,199.008 40.314,199.576 40.427 C 200.322 40.576,200.943 40.400,201.117 39.990 C 201.367 39.404,201.205 30.649,200.940 30.393 C 200.522 29.988,199.917 29.931,199.225 30.230 M220.315 36.135 C 219.991 37.063,220.013 37.952,220.360 37.952 C 220.853 37.952,221.050 36.744,220.702 35.854 C 220.568 35.512,220.519 35.547,220.315 36.135 M198.122 52.734 C 197.409 54.228,197.892 55.021,199.514 55.019 C 203.297 55.015,203.052 52.499,199.232 52.119 C 198.511 52.047,198.427 52.093,198.122 52.734 M206.991 53.416 C 205.915 53.991,205.918 54.105,207.026 54.918 C 208.092 55.700,209.215 55.689,209.520 54.894 C 210.020 53.591,208.416 52.654,206.991 53.416 M190.382 53.776 C 190.187 54.141,190.308 55.766,190.541 55.910 C 191.089 56.249,192.175 56.240,192.302 55.895 C 192.378 55.690,192.669 55.218,192.949 54.845 L 193.458 54.169 192.992 53.791 C 192.352 53.273,190.657 53.263,190.382 53.776 M199.462 57.182 C 200.787 58.587,202.080 58.661,202.889 57.379 C 203.188 56.905,203.125 56.884,200.904 56.725 L 198.896 56.581 199.462 57.182 M194.024 56.973 C 193.664 57.017,193.122 57.183,192.819 57.341 L 192.269 57.628 193.020 57.629 C 194.056 57.631,195.310 59.897,194.941 61.101 C 194.680 61.950,194.845 62.505,195.331 62.412 C 195.633 62.354,195.687 62.082,195.714 60.483 C 195.747 58.515,196.010 57.777,196.763 57.538 C 198.353 57.033,196.545 56.660,194.024 56.973 M205.268 57.480 C 205.447 57.618,205.691 58.105,205.810 58.561 C 206.169 59.933,207.660 60.098,208.474 58.855 L 208.986 58.072 207.882 57.934 C 207.275 57.858,206.417 57.669,205.975 57.513 C 204.986 57.164,204.851 57.157,205.268 57.480 M188.828 58.273 C 187.782 58.434,187.610 58.518,187.691 58.827 C 187.743 59.028,187.688 59.252,187.568 59.327 C 187.322 59.478,187.265 60.643,187.503 60.643 C 187.587 60.643,187.745 60.439,187.854 60.191 C 187.965 59.938,188.289 59.696,188.592 59.639 C 188.924 59.577,189.326 59.249,189.640 58.785 C 189.920 58.371,190.129 58.044,190.104 58.058 C 190.080 58.072,189.506 58.169,188.828 58.273 M204.551 60.388 C 204.268 60.849,204.343 62.121,204.666 62.325 C 205.265 62.702,205.534 62.211,205.249 61.260 C 205.007 60.454,204.727 60.103,204.551 60.388 M199.690 72.581 C 199.362 72.909,199.197 73.300,199.197 73.750 C 199.197 74.122,199.051 74.855,198.872 75.380 L 198.547 76.333 197.901 75.265 C 196.376 72.745,194.433 74.412,194.389 78.276 C 194.371 79.924,194.161 80.171,192.908 80.024 C 190.266 79.714,189.953 80.491,189.758 87.836 C 189.599 93.775,189.591 93.841,188.676 96.318 C 187.832 98.603,188.027 108.570,188.938 109.717 C 189.240 110.096,189.596 110.897,189.730 111.496 C 189.909 112.295,190.126 112.698,190.545 113.008 C 191.259 113.536,191.371 114.187,191.542 118.842 L 191.671 122.322 192.546 123.138 L 193.422 123.955 196.359 123.800 C 199.887 123.614,199.942 123.615,202.631 123.802 C 205.628 124.011,206.326 123.868,207.447 122.821 L 208.368 121.960 208.505 118.460 C 208.656 114.613,208.841 113.456,209.353 113.153 C 210.309 112.586,211.818 110.771,212.029 109.932 C 212.151 109.448,212.476 108.719,212.752 108.313 C 213.028 107.907,213.257 107.384,213.262 107.151 C 213.296 105.510,213.672 103.709,214.216 102.578 C 214.669 101.637,214.863 100.887,214.960 99.699 C 215.114 97.815,215.344 96.978,215.962 96.068 C 216.658 95.042,216.842 92.121,216.289 90.870 L 215.883 89.952 215.020 90.088 C 213.672 90.300,211.847 91.990,211.847 93.026 C 211.847 93.715,211.192 95.414,210.883 95.527 C 210.695 95.595,210.323 95.819,210.056 96.024 C 209.002 96.833,208.826 95.516,208.665 85.643 C 208.515 76.445,208.495 76.317,207.053 75.357 C 206.402 74.923,206.173 74.909,204.986 75.228 C 204.539 75.348,203.288 74.227,202.799 73.269 C 202.136 71.969,200.634 71.637,199.690 72.581 M202.107 73.946 C 202.641 75.124,203.012 80.125,203.012 86.144 C 203.012 87.788,203.089 89.180,203.182 89.238 C 203.366 89.352,203.608 85.481,203.621 82.229 C 203.636 78.221,204.254 76.275,205.665 75.786 C 207.291 75.224,207.487 76.301,208.027 88.755 C 208.468 98.911,208.669 99.756,210.338 98.483 C 211.049 97.940,211.761 96.428,212.269 94.378 C 212.530 93.325,213.325 91.889,213.921 91.395 C 214.130 91.221,214.389 91.232,214.980 91.438 C 215.968 91.783,215.962 91.920,214.719 96.770 C 214.221 98.712,213.589 101.250,213.314 102.410 C 211.695 109.248,211.403 109.996,209.647 111.783 C 207.863 113.599,207.463 114.883,207.382 119.055 C 207.308 122.861,207.652 122.688,200.489 122.516 C 199.157 122.484,197.143 122.570,196.014 122.707 L 193.961 122.956 193.294 122.309 L 192.627 121.663 192.506 118.613 C 192.370 115.188,191.965 113.347,191.096 112.208 C 189.085 109.571,188.534 104.534,189.553 98.093 C 190.178 94.139,190.419 91.725,190.757 86.012 C 190.929 83.099,191.031 82.425,191.414 81.655 C 192.439 79.594,193.257 80.986,193.462 85.141 C 193.536 86.632,193.650 88.206,193.717 88.639 L 193.838 89.427 194.085 88.438 C 194.221 87.895,194.388 86.456,194.456 85.241 C 194.566 83.288,195.051 78.303,195.299 76.586 C 195.365 76.127,195.572 75.864,196.086 75.587 C 197.530 74.810,197.719 75.569,197.986 83.233 C 198.093 86.325,198.240 89.209,198.311 89.642 C 198.682 91.899,199.178 87.344,199.194 81.526 C 199.200 79.126,199.313 77.609,199.601 76.020 C 199.821 74.814,200.000 73.796,200.000 73.758 C 200.000 73.651,201.284 72.893,201.467 72.892 C 201.556 72.892,201.844 73.366,202.107 73.946 M157.325 75.708 C 156.926 76.149,157.258 76.762,158.030 77.007 C 158.221 77.068,158.543 77.499,158.746 77.966 C 158.949 78.433,159.147 78.858,159.187 78.910 C 159.315 79.079,159.632 78.425,159.635 77.984 C 159.644 76.728,160.023 76.616,164.624 76.506 C 168.585 76.412,169.354 76.315,168.996 75.957 C 168.915 75.876,166.438 75.761,163.491 75.702 C 160.544 75.642,158.032 75.530,157.908 75.452 C 157.785 75.374,157.523 75.489,157.325 75.708 M236.245 75.690 C 229.171 75.856,228.811 76.438,235.755 76.482 C 240.034 76.510,240.038 76.511,240.465 78.114 C 240.848 79.554,240.856 79.518,240.177 79.518 C 239.279 79.518,238.971 79.705,238.567 80.497 C 238.363 80.897,237.995 81.406,237.751 81.627 C 237.506 81.847,237.078 82.480,236.800 83.032 C 236.522 83.584,236.169 84.109,236.016 84.198 C 235.863 84.287,235.518 84.795,235.248 85.328 C 234.978 85.860,234.622 86.347,234.455 86.411 C 234.289 86.475,233.911 87.006,233.616 87.591 C 233.320 88.176,232.865 88.910,232.604 89.222 C 232.342 89.534,232.129 89.902,232.129 90.038 C 232.129 90.175,231.849 90.552,231.508 90.876 C 231.167 91.200,230.746 91.737,230.574 92.068 C 230.401 92.400,230.008 92.987,229.700 93.373 C 229.393 93.760,229.081 94.326,229.006 94.632 C 228.932 94.937,228.632 95.370,228.341 95.593 C 228.050 95.816,227.631 96.298,227.410 96.664 C 227.189 97.031,226.708 97.773,226.341 98.314 C 225.424 99.665,225.462 101.542,226.431 102.748 C 226.769 103.169,227.198 103.807,227.383 104.165 C 227.568 104.523,227.936 104.957,228.200 105.131 C 228.464 105.304,228.831 105.824,229.015 106.287 C 229.199 106.750,229.513 107.309,229.712 107.530 C 229.912 107.751,230.266 108.313,230.500 108.778 C 230.734 109.244,231.105 109.722,231.325 109.839 C 231.545 109.957,231.917 110.435,232.151 110.900 C 232.384 111.366,232.742 111.929,232.945 112.151 C 233.148 112.374,233.446 112.871,233.607 113.256 C 233.769 113.641,234.143 114.182,234.440 114.458 C 234.736 114.734,235.144 115.282,235.346 115.676 C 235.548 116.070,235.864 116.517,236.048 116.670 C 236.233 116.823,236.597 117.392,236.859 117.934 C 237.121 118.477,237.526 119.113,237.760 119.350 C 237.993 119.586,238.383 120.093,238.625 120.477 C 239.193 121.377,240.452 121.668,241.438 121.128 C 242.030 120.804,246.897 120.777,321.084 120.682 L 400.100 120.581 320.436 120.532 C 249.404 120.487,240.689 120.449,240.014 120.174 C 239.338 119.899,237.149 117.284,237.149 116.752 C 237.149 116.671,236.874 116.235,236.539 115.783 C 234.733 113.344,234.001 112.299,233.778 111.847 C 233.642 111.571,233.126 110.803,232.632 110.141 C 232.138 109.478,231.468 108.529,231.142 108.032 C 230.817 107.535,230.377 106.903,230.164 106.627 C 229.951 106.350,229.628 105.835,229.446 105.480 C 229.264 105.126,228.896 104.618,228.630 104.351 C 228.363 104.084,227.919 103.420,227.642 102.874 C 227.366 102.329,226.997 101.764,226.823 101.619 C 226.345 101.223,226.396 99.559,226.900 99.103 C 227.117 98.907,227.486 98.374,227.721 97.918 C 227.956 97.462,228.356 96.862,228.610 96.586 C 228.863 96.310,229.211 95.807,229.382 95.467 C 229.552 95.128,229.841 94.727,230.023 94.576 C 230.205 94.425,230.610 93.793,230.924 93.173 C 231.237 92.552,231.635 91.926,231.809 91.782 C 232.182 91.473,233.543 89.508,234.010 88.606 C 234.189 88.258,234.572 87.720,234.859 87.410 C 235.147 87.101,235.519 86.576,235.686 86.245 C 235.853 85.914,236.192 85.417,236.440 85.141 C 236.688 84.864,237.062 84.322,237.271 83.936 C 237.480 83.549,237.989 82.792,238.404 82.253 C 238.818 81.714,239.157 81.203,239.157 81.118 C 239.157 80.538,241.569 80.520,320.214 80.522 C 373.402 80.523,400.000 80.456,400.000 80.322 C 400.000 80.188,373.686 80.120,321.074 80.120 C 237.226 80.120,240.964 80.159,240.964 79.285 C 240.964 78.428,241.505 77.427,242.207 76.984 C 243.359 76.257,243.124 75.469,241.777 75.540 C 241.385 75.560,238.896 75.628,236.245 75.690 M158.635 79.819 C 158.202 80.067,147.228 80.107,79.066 80.113 C 26.494 80.118,0.000 80.188,0.000 80.321 C 0.000 80.455,26.763 80.525,79.869 80.531 C 141.721 80.538,159.861 80.595,160.280 80.782 C 160.874 81.047,161.803 82.200,162.863 83.986 C 163.239 84.621,163.615 85.141,163.696 85.141 C 163.778 85.141,163.996 85.434,164.180 85.793 C 164.365 86.152,164.909 86.948,165.390 87.563 C 165.871 88.177,166.265 88.744,166.265 88.823 C 166.265 89.024,167.539 90.934,168.211 91.740 C 168.726 92.358,169.527 93.554,170.433 95.060 C 170.626 95.380,171.019 95.922,171.308 96.265 C 171.597 96.607,172.121 97.400,172.473 98.026 C 172.824 98.652,173.243 99.273,173.404 99.406 C 173.868 99.791,173.766 101.088,173.221 101.742 C 172.960 102.054,172.587 102.626,172.390 103.012 C 172.194 103.399,171.752 104.039,171.408 104.435 C 170.806 105.128,170.587 105.458,169.466 107.360 C 169.183 107.839,168.721 108.480,168.438 108.784 C 167.989 109.268,167.215 110.418,166.018 112.382 C 165.827 112.695,165.177 113.630,164.573 114.458 C 163.969 115.286,163.229 116.370,162.929 116.867 C 161.861 118.638,160.661 120.035,160.015 120.260 C 159.555 120.420,137.251 120.496,79.639 120.532 L -0.100 120.581 79.016 120.682 C 149.015 120.771,158.202 120.818,158.735 121.086 C 159.744 121.594,161.010 121.384,161.412 120.644 C 161.596 120.305,162.086 119.627,162.500 119.138 C 162.914 118.649,163.253 118.119,163.253 117.960 C 163.253 117.802,163.559 117.333,163.933 116.918 C 164.307 116.504,164.751 115.833,164.920 115.428 C 165.089 115.023,165.416 114.590,165.646 114.467 C 165.876 114.343,166.198 113.925,166.360 113.536 C 166.522 113.148,166.929 112.498,167.263 112.092 C 167.598 111.686,167.871 111.242,167.871 111.106 C 167.871 110.969,168.256 110.409,168.725 109.862 C 169.825 108.580,170.357 107.779,170.981 106.469 C 171.259 105.886,171.617 105.359,171.776 105.298 C 172.046 105.194,173.352 103.338,174.146 101.928 C 174.825 100.723,174.484 99.017,173.294 97.661 C 172.962 97.283,172.691 96.860,172.691 96.721 C 172.691 96.582,172.340 96.136,171.911 95.729 C 171.481 95.322,171.069 94.739,170.994 94.433 C 170.919 94.126,170.607 93.559,170.300 93.173 C 169.992 92.786,169.590 92.179,169.406 91.823 C 169.223 91.468,168.892 91.080,168.672 90.963 C 168.452 90.845,168.133 90.414,167.962 90.006 C 167.791 89.597,167.485 89.081,167.282 88.858 C 167.079 88.636,166.731 88.092,166.510 87.651 C 166.288 87.209,165.907 86.667,165.663 86.446 C 165.418 86.225,165.056 85.728,164.858 85.341 C 164.659 84.955,164.299 84.413,164.056 84.137 C 163.814 83.860,163.439 83.290,163.223 82.868 C 163.007 82.447,162.564 81.824,162.238 81.483 C 161.913 81.143,161.647 80.758,161.647 80.628 C 161.647 79.715,159.722 79.198,158.635 79.819 M240.724 121.794 C 240.661 121.901,240.546 122.364,240.470 122.823 C 240.241 124.211,240.152 124.240,235.643 124.358 C 233.434 124.416,231.401 124.532,231.126 124.617 L 230.625 124.771 231.226 124.956 C 232.512 125.352,242.431 125.470,242.838 125.094 C 243.192 124.767,243.170 124.724,242.286 123.999 C 241.780 123.584,241.361 123.143,241.356 123.018 C 241.339 122.574,240.838 121.604,240.724 121.794 M158.863 122.744 C 158.598 123.353,158.266 123.769,157.950 123.889 C 157.352 124.116,156.991 124.716,157.226 125.095 C 157.362 125.316,158.272 125.362,161.880 125.330 C 170.119 125.256,171.919 124.558,164.396 124.353 C 160.115 124.237,159.953 124.195,159.725 123.129 C 159.437 121.784,159.308 121.726,158.863 122.744 M182.124 122.360 C 182.069 122.415,180.444 122.559,178.512 122.680 C 176.580 122.800,174.729 122.975,174.398 123.069 L 173.795 123.239 174.498 123.368 C 174.885 123.438,176.175 123.573,177.366 123.666 C 179.130 123.805,179.584 123.907,179.819 124.217 C 180.068 124.545,180.109 129.898,180.114 162.701 C 180.118 187.964,180.188 200.803,180.321 200.803 C 180.454 200.803,180.523 187.967,180.525 162.701 C 180.528 119.193,180.286 123.705,182.635 123.356 C 186.112 122.840,187.296 123.118,187.773 124.565 C 187.915 124.996,188.296 125.766,188.620 126.276 C 188.943 126.786,189.335 127.563,189.490 128.003 C 189.645 128.442,189.984 129.167,190.242 129.612 C 190.501 130.057,191.005 131.099,191.363 131.928 C 191.720 132.756,192.805 135.060,193.774 137.048 C 196.740 143.136,197.791 145.346,197.791 145.495 C 197.791 145.713,199.556 148.344,199.806 148.498 C 200.182 148.730,202.410 146.019,202.410 145.329 C 202.410 145.234,202.873 144.190,203.440 143.010 C 204.007 141.829,204.874 140.005,205.368 138.956 C 205.862 137.907,206.384 136.822,206.528 136.546 C 206.672 136.270,206.932 135.773,207.105 135.442 C 207.279 135.110,207.747 134.116,208.145 133.233 C 208.543 132.349,209.314 130.723,209.858 129.618 C 210.403 128.514,210.847 127.534,210.846 127.440 C 210.845 127.346,211.155 126.759,211.536 126.135 C 211.917 125.511,212.290 124.743,212.366 124.429 C 212.553 123.650,213.522 123.094,214.694 123.093 C 216.521 123.092,218.755 123.501,219.177 123.915 C 219.575 124.305,219.579 124.608,219.630 162.556 C 219.664 187.689,219.750 200.803,219.881 200.803 C 220.012 200.803,220.080 187.730,220.080 162.575 C 220.080 128.452,220.113 124.319,220.389 124.091 C 220.558 123.950,221.575 123.763,222.648 123.675 C 223.721 123.587,225.005 123.451,225.502 123.373 L 226.406 123.232 225.703 123.067 C 224.584 122.805,218.219 122.390,215.332 122.390 C 212.281 122.390,212.044 122.497,211.654 124.059 C 211.512 124.623,211.189 125.211,210.846 125.526 C 210.443 125.897,210.232 126.330,210.132 126.992 C 210.038 127.620,209.772 128.194,209.331 128.722 C 208.951 129.177,208.613 129.852,208.536 130.312 C 208.461 130.751,208.136 131.444,207.812 131.851 C 207.489 132.259,207.166 132.952,207.096 133.391 C 207.024 133.839,206.719 134.474,206.403 134.835 C 205.776 135.549,205.422 136.339,205.422 137.024 C 205.422 137.272,205.161 137.725,204.842 138.030 C 204.429 138.426,204.198 138.917,204.036 139.740 C 203.871 140.579,203.644 141.053,203.205 141.473 C 202.823 141.839,202.556 142.338,202.477 142.832 C 202.408 143.261,202.052 144.049,201.686 144.581 C 201.320 145.114,200.959 145.805,200.885 146.118 C 200.536 147.582,199.795 147.628,199.269 146.217 C 199.078 145.702,198.715 145.030,198.464 144.723 C 198.068 144.238,197.595 143.031,197.591 142.496 C 197.591 142.401,197.324 142.019,196.999 141.648 C 196.478 141.055,195.988 139.889,195.985 139.234 C 195.984 139.112,195.712 138.668,195.379 138.250 C 195.046 137.831,194.717 137.134,194.648 136.702 C 194.574 136.240,194.243 135.581,193.847 135.106 C 193.441 134.621,193.119 133.973,193.041 133.487 C 192.969 133.034,192.667 132.398,192.357 132.044 C 192.051 131.696,191.737 131.054,191.657 130.616 C 191.479 129.636,191.134 128.931,190.592 128.441 C 190.364 128.235,190.082 127.597,189.961 127.015 C 189.814 126.305,189.554 125.782,189.162 125.407 C 188.808 125.067,188.530 124.547,188.450 124.072 C 188.188 122.522,187.936 122.398,184.906 122.325 C 183.431 122.289,182.180 122.305,182.124 122.360 " stroke="none" fill="#968989" fill-rule="evenodd"></path><path id="path4" d="M178.873 13.504 C 178.796 28.449,178.852 27.850,177.470 28.475 C 175.837 29.214,175.298 30.143,175.702 31.526 C 175.886 32.158,175.846 32.310,175.306 33.032 C 173.972 34.817,173.823 35.670,174.693 36.541 C 175.575 37.423,175.607 39.035,174.755 39.664 C 174.469 39.875,174.593 40.562,174.917 40.562 C 175.013 40.562,175.275 40.921,175.499 41.359 C 175.722 41.797,176.108 42.262,176.356 42.393 C 177.009 42.737,177.102 42.952,177.105 44.127 C 177.108 45.147,177.556 45.984,178.098 45.984 C 178.897 45.984,179.459 75.481,178.675 76.265 C 178.316 76.623,174.794 76.563,173.795 76.182 C 171.407 75.269,171.365 75.265,164.357 75.115 C 160.602 75.035,157.374 75.046,157.183 75.140 C 156.246 75.601,156.381 76.925,157.419 77.442 C 157.888 77.676,158.532 79.152,158.276 79.408 C 158.215 79.469,122.579 79.518,79.083 79.518 C 8.921 79.518,0.000 79.552,0.000 79.819 C 0.000 80.265,157.854 80.265,158.635 79.819 C 159.745 79.184,161.647 79.713,161.647 80.656 C 161.647 80.770,161.913 81.143,162.238 81.483 C 162.564 81.824,163.007 82.447,163.223 82.868 C 163.439 83.290,163.814 83.860,164.056 84.137 C 164.299 84.413,164.659 84.955,164.858 85.341 C 165.056 85.728,165.418 86.225,165.663 86.446 C 165.907 86.667,166.288 87.209,166.510 87.651 C 166.731 88.092,167.079 88.636,167.282 88.858 C 167.485 89.081,167.791 89.597,167.962 90.006 C 168.133 90.414,168.452 90.845,168.672 90.963 C 168.892 91.080,169.223 91.468,169.406 91.823 C 169.590 92.179,169.992 92.786,170.300 93.173 C 170.607 93.559,170.919 94.126,170.994 94.433 C 171.069 94.739,171.481 95.322,171.911 95.729 C 172.340 96.136,172.691 96.582,172.691 96.721 C 172.691 96.860,172.962 97.283,173.294 97.661 C 174.484 99.017,174.825 100.723,174.146 101.928 C 173.352 103.338,172.046 105.194,171.776 105.298 C 171.617 105.359,171.259 105.886,170.981 106.469 C 170.357 107.779,169.825 108.580,168.725 109.862 C 168.256 110.409,167.871 110.969,167.871 111.106 C 167.871 111.242,167.598 111.686,167.263 112.092 C 166.929 112.498,166.522 113.148,166.360 113.536 C 166.198 113.925,165.876 114.343,165.646 114.467 C 165.416 114.590,165.089 115.023,164.920 115.428 C 164.751 115.833,164.307 116.504,163.933 116.918 C 163.559 117.333,163.253 117.802,163.253 117.960 C 163.253 118.119,162.914 118.649,162.500 119.138 C 162.086 119.627,161.596 120.305,161.412 120.644 C 160.994 121.413,159.786 121.579,158.534 121.039 C 157.381 120.540,0.000 120.485,0.000 120.983 C 0.000 121.249,9.034 121.289,79.100 121.335 C 122.605 121.363,158.249 121.435,158.310 121.496 C 158.573 121.759,157.929 123.136,157.420 123.399 C 156.265 123.996,156.222 125.543,157.353 125.827 C 159.123 126.271,171.650 125.623,172.917 125.022 C 174.260 124.385,177.709 124.067,178.527 124.505 C 178.909 124.709,178.916 125.349,178.916 162.758 L 178.916 200.803 179.518 200.803 L 180.120 200.803 180.114 162.701 C 180.109 129.898,180.068 124.545,179.819 124.217 C 179.584 123.907,179.130 123.805,177.366 123.666 C 176.175 123.573,174.885 123.438,174.498 123.368 L 173.795 123.239 174.398 123.069 C 175.327 122.806,181.707 122.390,184.807 122.390 C 187.954 122.390,188.183 122.496,188.450 124.072 C 188.530 124.547,188.808 125.067,189.162 125.407 C 189.554 125.782,189.814 126.305,189.961 127.015 C 190.082 127.597,190.364 128.235,190.592 128.441 C 191.134 128.931,191.479 129.636,191.657 130.616 C 191.737 131.054,192.051 131.696,192.357 132.044 C 192.667 132.398,192.969 133.034,193.041 133.487 C 193.119 133.973,193.441 134.621,193.847 135.106 C 194.243 135.581,194.574 136.240,194.648 136.702 C 194.717 137.134,195.046 137.831,195.379 138.250 C 195.712 138.668,195.984 139.112,195.985 139.234 C 195.988 139.889,196.478 141.055,196.999 141.648 C 197.324 142.019,197.591 142.401,197.591 142.496 C 197.595 143.031,198.068 144.238,198.464 144.723 C 198.715 145.030,199.078 145.702,199.269 146.217 C 199.795 147.628,200.536 147.582,200.885 146.118 C 200.959 145.805,201.320 145.114,201.686 144.581 C 202.052 144.049,202.408 143.261,202.477 142.832 C 202.556 142.338,202.823 141.839,203.205 141.473 C 203.644 141.053,203.871 140.579,204.036 139.740 C 204.198 138.917,204.429 138.426,204.842 138.030 C 205.161 137.725,205.422 137.272,205.422 137.024 C 205.422 136.339,205.776 135.549,206.403 134.835 C 206.719 134.474,207.024 133.839,207.096 133.391 C 207.166 132.952,207.489 132.259,207.812 131.851 C 208.136 131.444,208.461 130.751,208.536 130.312 C 208.613 129.852,208.951 129.177,209.331 128.722 C 209.772 128.194,210.038 127.620,210.132 126.992 C 210.232 126.330,210.443 125.897,210.846 125.526 C 211.189 125.211,211.512 124.623,211.654 124.059 C 212.044 122.497,212.281 122.390,215.332 122.390 C 218.219 122.390,224.584 122.805,225.703 123.067 L 226.406 123.232 225.502 123.373 C 225.005 123.451,223.721 123.587,222.648 123.675 C 221.575 123.763,220.558 123.950,220.389 124.091 C 220.113 124.319,220.080 128.452,220.080 162.575 L 220.080 200.803 220.582 200.803 L 221.084 200.803 221.084 162.775 L 221.084 124.748 221.699 124.493 C 222.631 124.107,225.621 124.375,227.059 124.974 C 229.209 125.870,242.027 126.362,243.128 125.591 C 243.871 125.071,243.315 123.293,242.410 123.293 C 242.068 123.293,241.701 121.651,242.002 121.461 C 242.149 121.368,277.759 121.290,321.135 121.288 C 391.102 121.285,400.000 121.251,400.000 120.984 C 400.000 120.444,242.640 120.536,241.580 121.078 C 240.431 121.663,239.218 121.417,238.625 120.477 C 238.383 120.093,237.993 119.586,237.760 119.350 C 237.526 119.113,237.121 118.477,236.859 117.934 C 236.597 117.392,236.233 116.823,236.048 116.670 C 235.864 116.517,235.548 116.070,235.346 115.676 C 235.144 115.282,234.736 114.734,234.440 114.458 C 234.143 114.182,233.769 113.641,233.607 113.256 C 233.446 112.871,233.148 112.374,232.945 112.151 C 232.742 111.929,232.384 111.366,232.151 110.900 C 231.917 110.435,231.545 109.957,231.325 109.839 C 231.105 109.722,230.734 109.244,230.500 108.778 C 230.266 108.313,229.912 107.751,229.712 107.530 C 229.513 107.309,229.199 106.750,229.015 106.287 C 228.831 105.824,228.464 105.304,228.200 105.131 C 227.936 104.957,227.568 104.523,227.383 104.165 C 227.198 103.807,226.769 103.169,226.431 102.748 C 225.462 101.542,225.424 99.665,226.341 98.314 C 226.708 97.773,227.189 97.031,227.410 96.664 C 227.631 96.298,228.050 95.816,228.341 95.593 C 228.632 95.370,228.932 94.937,229.006 94.632 C 229.081 94.326,229.393 93.760,229.700 93.373 C 230.008 92.987,230.401 92.400,230.574 92.068 C 230.746 91.737,231.167 91.200,231.508 90.876 C 231.849 90.552,232.129 90.175,232.129 90.038 C 232.129 89.902,232.342 89.534,232.604 89.222 C 232.865 88.910,233.320 88.176,233.616 87.591 C 233.911 87.006,234.289 86.475,234.455 86.411 C 234.622 86.347,234.978 85.860,235.248 85.328 C 235.518 84.795,235.863 84.287,236.016 84.198 C 236.169 84.109,236.522 83.584,236.800 83.032 C 237.078 82.480,237.506 81.847,237.751 81.627 C 237.995 81.406,238.363 80.897,238.567 80.497 C 238.971 79.705,239.279 79.518,240.177 79.518 C 240.856 79.518,240.848 79.554,240.465 78.114 C 240.038 76.511,240.034 76.510,235.755 76.482 C 231.785 76.457,230.603 76.335,231.124 76.006 C 231.548 75.739,242.401 75.505,242.721 75.756 C 243.158 76.099,242.996 76.486,242.207 76.984 C 241.660 77.329,241.374 77.694,241.203 78.265 C 240.869 79.380,240.889 79.469,241.556 79.814 C 242.452 80.277,400.000 80.282,400.000 79.819 C 400.000 79.552,391.088 79.518,320.996 79.518 C 277.543 79.518,241.944 79.442,241.887 79.349 C 241.636 78.942,242.204 77.703,242.778 77.406 C 243.687 76.936,243.837 75.537,243.014 75.195 C 241.680 74.640,228.662 75.232,227.167 75.916 C 226.000 76.449,222.251 76.715,221.507 76.317 L 221.062 76.078 221.139 61.985 C 221.223 46.630,221.234 46.473,222.327 45.562 C 222.915 45.073,222.960 44.936,223.048 43.426 L 223.141 41.812 224.322 41.048 C 225.577 40.236,225.673 40.062,225.207 39.446 C 225.045 39.232,224.909 38.876,224.905 38.655 C 224.901 38.434,224.716 37.954,224.493 37.588 C 224.019 36.810,224.086 36.624,224.909 36.444 C 226.759 36.037,226.192 33.192,224.186 32.816 C 223.238 32.638,223.175 32.213,223.984 31.450 C 225.194 30.309,224.469 28.513,222.677 28.210 C 221.183 27.958,221.084 26.949,221.084 11.916 L 221.084 0.000 220.582 0.000 L 220.080 0.000 220.087 13.002 C 220.094 25.433,220.111 26.039,220.482 26.807 C 220.928 27.730,220.971 28.176,220.669 28.740 C 220.470 29.113,220.503 29.131,221.158 29.008 C 222.077 28.835,222.457 29.061,221.902 29.450 C 221.379 29.817,221.358 30.705,221.858 31.348 C 222.062 31.612,222.391 32.169,222.587 32.587 C 222.783 33.005,223.108 33.435,223.309 33.542 C 223.639 33.719,223.647 33.800,223.394 34.405 C 222.802 35.823,222.788 37.075,223.356 37.819 C 224.127 38.830,223.331 40.936,222.170 40.959 C 221.456 40.974,221.286 41.676,221.811 42.448 C 222.445 43.381,222.350 44.221,221.473 45.431 C 221.149 45.879,220.884 46.330,220.884 46.434 C 220.884 46.538,220.703 46.853,220.482 47.134 C 220.089 47.634,220.080 47.949,220.080 62.044 C 220.080 79.044,219.671 77.101,223.296 77.309 C 228.843 77.629,225.285 78.208,216.299 78.448 C 212.128 78.559,211.985 78.517,211.744 77.088 C 211.667 76.638,211.325 75.958,210.944 75.502 C 210.537 75.015,210.221 74.371,210.134 73.848 C 210.043 73.301,209.751 72.725,209.327 72.255 C 208.866 71.742,208.621 71.230,208.523 70.575 C 208.432 69.972,208.177 69.400,207.813 68.985 C 207.473 68.599,207.188 67.987,207.105 67.468 C 207.013 66.896,206.736 66.345,206.294 65.856 C 205.683 65.179,205.622 64.998,205.622 63.857 L 205.622 62.602 206.878 62.696 C 207.568 62.747,208.403 62.713,208.733 62.620 C 209.063 62.526,210.051 62.360,210.929 62.250 C 211.807 62.140,212.593 61.940,212.677 61.805 C 212.760 61.671,213.161 61.467,213.568 61.353 C 214.573 61.070,214.964 60.480,214.544 59.880 C 214.195 59.382,213.778 59.328,213.072 59.692 C 212.631 59.918,212.515 59.868,211.721 59.105 C 210.281 57.720,209.021 57.707,208.315 59.072 C 207.752 60.161,206.119 59.793,205.795 58.503 C 205.554 57.546,205.306 57.340,204.061 57.061 C 203.303 56.890,203.223 56.916,202.816 57.466 C 201.932 58.662,200.720 58.549,199.413 57.148 C 198.816 56.508,197.877 56.456,197.296 57.030 C 197.071 57.252,196.671 57.598,196.407 57.798 C 195.854 58.218,195.523 59.950,195.720 61.391 C 195.814 62.075,195.770 62.267,195.495 62.372 C 194.895 62.603,194.670 62.146,194.921 61.204 C 195.130 60.422,195.098 60.267,194.458 58.997 L 193.770 57.631 192.819 57.647 C 191.148 57.675,190.126 58.053,189.603 58.835 C 189.320 59.259,188.919 59.578,188.593 59.639 C 188.289 59.696,187.965 59.938,187.854 60.191 C 187.745 60.439,187.587 60.643,187.503 60.643 C 187.263 60.643,187.323 59.544,187.577 59.291 C 188.084 58.783,187.595 58.369,187.022 58.820 C 186.730 59.049,186.334 59.237,186.142 59.237 C 185.570 59.237,185.238 60.309,185.519 61.247 C 185.816 62.240,185.642 62.165,188.353 62.451 C 189.623 62.584,190.993 62.826,191.397 62.988 C 192.051 63.249,192.200 63.247,192.743 62.966 C 194.525 62.045,195.299 64.328,193.760 65.964 C 193.405 66.341,193.140 66.896,193.052 67.447 C 192.968 67.977,192.686 68.585,192.343 68.975 C 192.014 69.350,191.684 70.047,191.559 70.630 C 191.429 71.233,191.144 71.825,190.849 72.102 C 190.568 72.366,190.187 73.132,189.963 73.883 C 189.727 74.673,189.409 75.300,189.169 75.450 C 188.943 75.590,188.630 76.171,188.453 76.780 C 187.892 78.711,187.017 78.818,177.284 78.154 C 173.307 77.882,173.032 77.388,176.827 77.333 C 178.653 77.306,179.633 77.042,179.924 76.498 C 180.047 76.269,180.120 70.833,180.120 62.000 L 180.120 47.869 179.618 47.189 C 179.342 46.815,179.116 46.407,179.116 46.284 C 179.116 46.160,178.845 45.799,178.514 45.482 C 177.793 44.791,177.741 44.071,178.318 42.799 C 178.856 41.613,178.827 41.442,177.998 40.917 C 176.842 40.184,176.176 37.851,176.807 36.747 C 177.148 36.150,177.192 34.942,176.897 34.294 C 176.659 33.773,177.480 31.658,177.997 31.459 C 178.148 31.401,178.421 30.905,178.603 30.357 C 178.814 29.721,179.073 29.323,179.316 29.259 C 179.651 29.172,179.674 29.071,179.501 28.445 C 179.348 27.890,179.395 27.373,179.712 26.131 C 180.101 24.608,180.120 23.941,180.120 12.266 L 180.120 0.000 179.532 0.000 L 178.943 0.000 178.873 13.504 M188.763 27.199 C 188.356 27.690,188.886 28.269,189.333 27.821 C 189.614 27.540,189.614 27.480,189.333 27.199 C 189.052 26.918,188.997 26.918,188.763 27.199 M218.608 27.041 C 218.365 27.284,218.468 27.867,218.775 27.984 C 219.424 28.233,220.222 27.621,219.843 27.165 C 219.618 26.893,218.834 26.815,218.608 27.041 M180.528 27.299 C 180.162 27.533,180.298 27.686,180.936 27.757 C 181.260 27.793,181.426 27.710,181.426 27.513 C 181.426 27.153,180.936 27.036,180.528 27.299 M191.888 28.833 C 191.666 29.412,192.016 29.672,192.557 29.329 C 192.796 29.178,192.801 29.093,192.583 28.831 C 192.249 28.429,192.043 28.430,191.888 28.833 M198.594 58.835 C 198.594 58.946,198.165 59.024,197.641 59.010 C 196.709 58.984,196.703 58.980,197.390 58.835 C 198.436 58.615,198.594 58.615,198.594 58.835 M192.369 59.210 C 192.369 60.035,190.803 61.194,190.453 60.628 C 190.010 59.912,190.634 58.835,191.492 58.835 C 192.214 58.835,192.369 58.901,192.369 59.210 M210.452 60.143 C 211.482 60.369,211.316 60.643,210.149 60.643 C 209.031 60.643,209.029 60.641,209.149 60.090 C 209.387 59.008,209.474 58.906,209.674 59.475 C 209.802 59.836,210.057 60.056,210.452 60.143 M205.249 61.260 C 205.534 62.211,205.265 62.702,204.666 62.325 C 204.415 62.166,204.340 61.897,204.389 61.325 C 204.507 59.959,204.852 59.933,205.249 61.260 M203.598 61.909 C 203.802 62.385,204.205 62.929,204.494 63.119 C 204.930 63.404,205.020 63.615,205.020 64.353 C 205.020 65.486,205.365 66.243,205.949 66.390 C 206.318 66.482,206.431 66.686,206.531 67.439 C 206.713 68.808,207.020 69.468,207.534 69.597 C 207.918 69.694,208.012 69.892,208.128 70.850 C 208.277 72.081,208.675 72.892,209.132 72.892 C 209.308 72.892,209.469 73.184,209.546 73.645 C 209.774 75.000,210.069 75.712,210.528 76.013 C 210.817 76.202,211.097 76.733,211.306 77.485 C 211.786 79.210,211.763 79.205,218.236 79.038 C 224.811 78.868,227.874 78.605,229.317 78.087 C 231.293 77.379,231.777 77.319,235.568 77.314 C 240.140 77.308,240.557 77.571,238.678 79.272 C 238.220 79.686,237.952 80.111,237.952 80.421 C 237.952 80.764,237.770 81.007,237.352 81.223 C 237.016 81.397,236.696 81.760,236.623 82.050 C 236.552 82.334,236.140 82.976,235.707 83.475 C 235.274 83.975,234.867 84.649,234.803 84.972 C 234.728 85.344,234.476 85.668,234.117 85.853 C 233.727 86.055,233.482 86.394,233.336 86.937 C 233.210 87.406,232.971 87.775,232.748 87.846 C 232.409 87.954,231.526 89.619,231.526 90.153 C 231.526 90.273,231.293 90.460,231.007 90.569 C 230.676 90.694,230.375 91.054,230.175 91.563 C 230.003 92.002,229.703 92.411,229.508 92.473 C 229.138 92.591,228.514 93.907,228.514 94.571 C 228.514 94.795,228.282 95.069,227.963 95.222 C 227.659 95.368,227.275 95.772,227.109 96.120 C 226.943 96.469,226.561 96.947,226.260 97.183 C 224.777 98.344,224.800 103.000,226.291 103.745 C 226.545 103.872,226.918 104.343,227.119 104.792 C 227.366 105.346,227.650 105.650,227.999 105.738 C 228.375 105.832,228.514 105.998,228.514 106.355 C 228.514 106.985,229.210 108.349,229.609 108.503 C 229.779 108.568,230.064 108.986,230.242 109.433 C 230.454 109.961,230.728 110.285,231.027 110.360 C 231.369 110.446,231.544 110.704,231.711 111.366 C 231.917 112.184,232.127 112.480,233.018 113.211 C 233.191 113.353,233.333 113.678,233.333 113.933 C 233.333 114.403,233.771 114.906,234.362 115.114 C 234.542 115.177,234.749 115.554,234.824 115.951 C 234.904 116.378,235.239 116.953,235.645 117.358 C 236.022 117.736,236.390 118.280,236.462 118.568 C 236.535 118.856,236.899 119.325,237.273 119.610 C 237.646 119.895,237.952 120.301,237.952 120.512 C 237.952 120.724,238.265 121.210,238.647 121.592 C 240.621 123.566,240.296 123.763,235.248 123.646 C 231.510 123.560,231.130 123.516,229.888 123.030 C 228.008 122.295,226.231 122.122,218.901 121.964 C 211.517 121.804,211.673 121.774,211.258 123.431 C 211.114 124.007,210.793 124.603,210.463 124.907 C 210.060 125.277,209.842 125.754,209.665 126.653 C 209.483 127.577,209.322 127.921,209.028 128.015 C 208.500 128.182,208.309 128.600,208.147 129.943 C 208.033 130.878,207.926 131.109,207.515 131.296 C 206.961 131.548,206.743 132.008,206.548 133.333 C 206.444 134.046,206.293 134.307,205.839 134.567 C 205.273 134.891,205.211 135.042,204.925 136.795 C 204.845 137.283,204.647 137.627,204.359 137.779 C 203.755 138.097,203.662 138.278,203.505 139.448 C 203.398 140.240,203.224 140.596,202.707 141.075 C 202.204 141.540,202.009 141.924,201.897 142.672 C 201.787 143.406,201.586 143.811,201.104 144.268 C 200.628 144.719,200.422 145.129,200.318 145.833 C 200.161 146.891,199.799 147.132,199.799 146.178 C 199.799 145.458,199.301 144.177,199.021 144.177 C 198.604 144.177,198.193 143.516,198.193 142.847 C 198.193 141.974,197.720 141.032,197.198 140.866 C 196.933 140.782,196.761 140.495,196.680 139.999 C 196.614 139.591,196.513 139.010,196.457 138.708 C 196.401 138.405,196.091 137.970,195.768 137.740 C 195.370 137.457,195.180 137.149,195.180 136.784 C 195.177 135.676,194.778 134.749,194.167 134.433 C 193.731 134.207,193.574 133.981,193.573 133.579 C 193.571 132.604,193.169 131.538,192.712 131.298 C 192.104 130.977,192.026 130.819,191.872 129.582 C 191.763 128.714,191.626 128.421,191.165 128.081 C 190.717 127.750,190.562 127.436,190.453 126.640 C 190.345 125.860,190.159 125.473,189.656 124.984 C 189.212 124.553,188.953 124.072,188.856 123.497 C 188.562 121.758,188.800 121.806,181.275 121.965 C 174.088 122.117,171.850 122.310,170.529 122.895 C 169.157 123.501,167.618 123.695,164.160 123.695 C 160.095 123.695,159.653 123.425,161.244 121.912 C 161.692 121.486,162.099 120.879,162.168 120.537 C 162.244 120.156,162.475 119.841,162.782 119.701 C 163.053 119.578,163.412 119.147,163.580 118.743 C 163.749 118.340,164.149 117.748,164.469 117.428 C 164.789 117.108,165.148 116.486,165.266 116.045 C 165.416 115.487,165.633 115.186,165.979 115.054 C 166.487 114.861,166.542 114.772,166.756 113.798 C 166.824 113.486,167.085 113.145,167.347 113.026 C 167.849 112.797,168.474 111.690,168.474 111.031 C 168.474 110.810,168.632 110.574,168.825 110.505 C 169.378 110.309,169.880 109.808,169.880 109.451 C 169.880 109.271,170.187 108.834,170.563 108.479 C 171.012 108.057,171.333 107.500,171.496 106.864 C 171.660 106.222,171.888 105.831,172.168 105.708 C 172.400 105.606,172.742 105.217,172.928 104.845 C 173.114 104.473,173.534 103.931,173.862 103.640 C 175.322 102.347,175.234 97.577,173.742 97.103 C 173.527 97.035,173.210 96.620,173.037 96.182 C 172.851 95.707,172.534 95.312,172.253 95.205 C 171.916 95.077,171.710 94.756,171.528 94.074 C 171.380 93.522,171.030 92.895,170.695 92.581 C 170.377 92.284,169.982 91.721,169.819 91.329 C 169.627 90.870,169.344 90.572,169.024 90.492 C 168.627 90.392,168.499 90.199,168.394 89.539 C 168.299 88.944,168.038 88.491,167.464 87.923 C 167.025 87.488,166.667 86.952,166.667 86.730 C 166.667 86.494,166.421 86.186,166.076 85.988 C 165.659 85.748,165.424 85.404,165.275 84.812 C 165.148 84.306,164.828 83.776,164.465 83.471 C 164.136 83.194,163.723 82.610,163.549 82.173 C 163.374 81.737,163.022 81.284,162.766 81.168 C 162.510 81.051,162.237 80.703,162.160 80.394 C 162.082 80.085,161.658 79.441,161.217 78.963 C 159.819 77.446,159.904 77.410,164.863 77.410 C 168.911 77.410,169.237 77.437,170.155 77.861 C 171.574 78.516,172.980 78.690,178.792 78.934 C 187.968 79.320,188.531 79.229,188.855 77.309 C 188.935 76.836,189.176 76.362,189.443 76.152 C 190.058 75.668,190.295 75.176,190.467 74.030 C 190.579 73.285,190.722 73.011,191.086 72.845 C 191.600 72.611,191.629 72.543,191.968 70.833 C 192.117 70.084,192.296 69.679,192.479 69.679 C 192.929 69.679,193.376 68.812,193.510 67.680 C 193.610 66.835,193.723 66.600,194.094 66.459 C 194.690 66.233,194.900 65.808,195.082 64.468 C 195.191 63.657,195.356 63.273,195.718 62.989 C 195.987 62.777,196.347 62.253,196.519 61.824 L 196.831 61.044 200.029 61.044 L 203.227 61.044 203.598 61.909 M199.223 72.062 C 198.970 72.315,198.799 72.888,198.700 73.819 L 198.552 75.201 198.222 74.504 C 197.697 73.394,196.849 73.154,195.128 73.626 C 194.448 73.813,194.105 74.889,193.988 77.209 L 193.876 79.418 192.216 79.526 C 190.751 79.621,190.492 79.698,190.007 80.182 L 189.458 80.731 189.350 86.902 L 189.242 93.072 188.715 93.827 C 187.855 95.060,187.709 96.581,187.784 103.587 L 187.851 109.884 188.480 110.414 C 188.934 110.796,189.151 111.191,189.257 111.829 C 189.398 112.680,189.969 113.490,190.568 113.690 C 190.798 113.767,190.873 114.635,190.959 118.188 C 191.119 124.867,190.560 124.466,199.697 124.464 C 206.748 124.462,207.545 124.367,207.772 123.497 C 207.831 123.274,207.998 123.092,208.145 123.092 C 208.818 123.092,209.036 122.256,209.056 119.584 C 209.090 115.145,209.266 113.571,209.739 113.484 C 210.279 113.385,210.648 113.063,210.859 112.508 C 210.956 112.255,211.158 112.048,211.309 112.048 C 211.778 112.048,212.278 111.314,212.393 110.457 C 212.453 110.007,212.564 109.639,212.639 109.639 C 213.206 109.639,213.703 108.290,213.878 106.280 C 214.046 104.346,214.113 104.105,214.661 103.480 C 214.991 103.105,215.265 102.778,215.270 102.754 C 215.276 102.730,215.352 101.566,215.441 100.167 C 215.595 97.722,215.623 97.605,216.163 97.141 C 217.237 96.217,217.380 90.175,216.345 89.418 C 214.822 88.305,211.795 90.368,211.351 92.822 C 211.132 94.035,211.108 94.070,210.371 94.244 C 209.292 94.499,209.348 94.926,209.222 85.475 C 209.102 76.525,208.981 75.301,208.214 75.301 C 208.081 75.301,207.589 74.987,207.121 74.603 L 206.268 73.904 205.763 74.301 C 205.159 74.777,204.418 74.826,204.418 74.391 C 204.418 74.222,204.124 73.777,203.765 73.402 C 203.406 73.028,202.950 72.488,202.752 72.204 C 202.277 71.523,199.860 71.426,199.223 72.062 M202.021 72.296 C 202.234 72.410,202.584 72.848,202.799 73.269 C 203.288 74.227,204.539 75.348,204.986 75.228 C 206.173 74.909,206.402 74.923,207.053 75.357 C 208.495 76.317,208.515 76.445,208.665 85.643 C 208.826 95.516,209.002 96.833,210.056 96.024 C 210.323 95.819,210.695 95.595,210.883 95.527 C 211.192 95.414,211.847 93.715,211.847 93.026 C 211.847 91.990,213.672 90.300,215.020 90.088 L 215.883 89.952 216.289 90.870 C 216.842 92.121,216.658 95.042,215.962 96.068 C 215.344 96.978,215.114 97.815,214.960 99.699 C 214.863 100.887,214.669 101.637,214.216 102.578 C 213.672 103.709,213.296 105.510,213.262 107.151 C 213.257 107.384,213.028 107.907,212.752 108.313 C 212.476 108.719,212.151 109.448,212.029 109.932 C 211.818 110.771,210.309 112.586,209.353 113.153 C 208.841 113.456,208.656 114.613,208.505 118.460 L 208.368 121.960 207.447 122.821 C 206.326 123.868,205.628 124.011,202.631 123.802 C 199.942 123.615,199.887 123.614,196.359 123.800 L 193.422 123.955 192.546 123.138 L 191.671 122.322 191.542 118.842 C 191.371 114.187,191.259 113.536,190.545 113.008 C 190.126 112.698,189.909 112.295,189.730 111.496 C 189.596 110.897,189.240 110.096,188.938 109.717 C 188.027 108.570,187.832 98.603,188.676 96.318 C 189.591 93.841,189.599 93.775,189.758 87.836 C 189.953 80.491,190.266 79.714,192.908 80.024 C 194.161 80.171,194.371 79.924,194.389 78.276 C 194.433 74.412,196.376 72.745,197.901 75.265 L 198.547 76.333 198.872 75.380 C 199.051 74.855,199.197 74.122,199.197 73.750 C 199.197 72.444,200.777 71.630,202.021 72.296 M163.491 75.702 C 166.438 75.761,168.915 75.876,168.996 75.957 C 169.354 76.315,168.585 76.412,164.624 76.506 C 160.023 76.616,159.644 76.728,159.635 77.984 C 159.632 78.425,159.315 79.079,159.187 78.910 C 159.147 78.858,158.949 78.433,158.746 77.966 C 158.543 77.499,158.221 77.068,158.030 77.007 C 157.258 76.762,156.926 76.149,157.325 75.708 C 157.523 75.489,157.785 75.374,157.908 75.452 C 158.032 75.530,160.544 75.642,163.491 75.702 M241.356 123.018 C 241.361 123.143,241.780 123.584,242.286 123.999 C 243.170 124.724,243.192 124.767,242.838 125.094 C 242.431 125.470,232.512 125.352,231.226 124.956 L 230.625 124.771 231.126 124.617 C 231.401 124.532,233.434 124.416,235.643 124.358 C 240.152 124.240,240.241 124.211,240.470 122.823 C 240.546 122.364,240.661 121.901,240.724 121.794 C 240.838 121.604,241.339 122.574,241.356 123.018 M159.725 123.129 C 159.953 124.195,160.115 124.237,164.396 124.353 C 171.919 124.558,170.119 125.256,161.880 125.330 C 158.272 125.362,157.362 125.316,157.226 125.095 C 156.991 124.716,157.352 124.116,157.950 123.889 C 158.266 123.769,158.598 123.353,158.863 122.744 C 159.308 121.726,159.437 121.784,159.725 123.129 " stroke="none" fill="#f2c4c4" fill-rule="evenodd"></path></g></svg>